<?xml version="1.0" encoding="UTF-8"?>
<!DOCTYPE svg PUBLIC "-//W3C//DTD SVG 1.1//EN" "http://www.w3.org/Graphics/SVG/1.1/DTD/svg11.dtd">
<!-- Creator: CorelDRAW -->
<svg xmlns="http://www.w3.org/2000/svg" xml:space="preserve" width="162.56mm" height="54.1866mm" version="1.1" style="shape-rendering:geometricPrecision; text-rendering:geometricPrecision; image-rendering:optimizeQuality; fill-rule:evenodd; clip-rule:evenodd"
viewBox="0 0 16256 5418.66"
 xmlns:xlink="http://www.w3.org/1999/xlink"
 xmlns:xodm="http://www.corel.com/coreldraw/odm/2003">
 <defs>
  <style type="text/css">
   <![CDATA[
    .str0 {stroke:#CCCCCC;stroke-width:8.47;stroke-miterlimit:22.9256}
    .str1 {stroke:#CCCCCC;stroke-width:16.93;stroke-miterlimit:22.9256}
    .str2 {stroke:white;stroke-width:7.62;stroke-miterlimit:22.9256}
    .fil11 {fill:lime}
    .fil7 {fill:#33CC66}
    .fil0 {fill:#61FFE7}
    .fil6 {fill:#99FFFF}
    .fil3 {fill:#B4CB33}
    .fil5 {fill:#CCCCCC}
    .fil1 {fill:#E6E6E6}
    .fil8 {fill:#FF61D7}
    .fil10 {fill:#FF8833}
    .fil4 {fill:#FF99CC}
    .fil2 {fill:#FFA851}
    .fil9 {fill:#FFCCCC}
    .fil12 {fill:black;fill-rule:nonzero}
   ]]>
  </style>
 </defs>
 <g id="Camada_x0020_1">
  <metadata id="CorelCorpID_0Corel-Layer"/>
  <path class="fil0" d="M11139.13 4582.2c5.76,3.49 117.08,-1.72 218.55,3.08 86.67,4.1 183.6,3.54 284.32,12.05 29.12,2.45 68.76,10.41 96.1,11.76 53.79,2.64 107.76,8.93 149.84,15.67 11.98,1.91 22.78,2.58 31.93,1.09 65.21,-10.61 60.08,-71.05 -21.35,-107.3 -19,-8.45 -42.17,-15.61 -69.56,-20.48 -53.78,-9.59 -75.62,-45.1 -109.76,-75.35 -78.15,-69.25 -109.84,-131.23 -140.07,-83.45 -6.92,10.92 -77.37,-18.64 -83.75,7.32 -0.53,2.19 51.6,35.39 43.8,40.04 -24.46,14.58 -114.19,15.99 -176.01,40.67 -44.95,17.95 -64.84,46.96 -94.12,29.68 -20.24,-11.93 -12.58,-65.57 -16.55,-96.74 -4.72,-36.9 -54.79,-19.78 -63,-7.44 -15.02,22.59 11.15,83.31 12.26,150.38 0.7,42.3 -66.94,76.41 -62.63,79.02z"/>
  <path class="fil1" d="M12464.53 4662.82c-32.72,-9.28 -168.99,-7.92 -228.82,-20.4 -40.01,-8.34 -304.23,-15.21 -307.83,-17.36 41.23,-14.15 37.08,-41.41 21.57,-64.71 -8.35,-12.53 -20.45,-13.98 -23.83,-24.92 -1.18,-3.82 0.61,-10.67 5.04,-16.1 3.97,-4.86 3.28,-9.94 6.25,-12.88 4.58,-4.54 4.79,-8.16 11.73,-10.65 2.31,-0.83 13.66,-9.12 18.38,-9.32 7.75,-0.34 12.17,-10.14 17.86,-14.73 12.28,-9.92 12.14,-17.55 13.69,-34.85 1.27,-14.13 6.12,-37.21 -0.31,-53.08 -30,-73.99 -67.18,-145.94 37.83,-7.75 1.8,2.37 11.75,13.83 15.05,18.01 9.54,12.05 22.75,26.91 34.7,41.25 10.3,12.36 19.97,21.01 20.31,22.65 8.72,1.82 44.23,47.14 91.44,68.89 47.16,21.74 96.21,21.36 137.88,-10.7 33.39,-25.68 59.98,-59.55 64.08,-164.23 0.3,-7.67 -2.68,-25.73 -11.38,-35.67 -9.38,-10.7 -20.74,-25.76 -27.05,-51.63 -3.4,-13.98 -2.46,-47.53 -2.46,-65.32 23.05,0 38.46,29.8 52.66,52.98 15.39,25.12 29.29,45.1 46.3,81.35 5.12,10.92 9.87,23 15.08,35.03 6.2,14.29 23.58,26.74 32.61,38.92 7.74,10.44 29.37,31.74 37.18,40.11 25.39,27.21 53.08,58.83 86.12,102.47 18.46,24.38 40.76,34.44 74.64,53.03 23.97,13.14 52.14,35.11 87.04,42.21 92.24,18.75 -17.11,-67.3 126.34,17.46 46.99,27.77 146.73,-50.91 30.17,-183.69 -8.37,-9.53 -28.82,-15.58 -39.56,-25.62 -10.22,-9.54 -6.32,-25.91 -18.87,-35.88 -12.09,-9.6 -75.1,23.54 -89.91,5.25 -30.11,-37.21 -65.72,-69.62 -45.49,-98.39 4.13,-5.87 5.44,2.24 15.3,-4.8 65.31,-46.58 373.59,354.96 492.09,349.89 5.46,-0.23 95.74,18.25 164.25,14.88 68.53,-3.38 115.32,-28.65 35.69,-74.02 -56.33,-32.14 352.67,-1.54 359.35,10.98 59.2,110.99 105.1,74.26 115.83,96.81 9.8,20.6 -47.4,16.01 -14.56,95.36 28.27,68.31 238.53,-166.27 158.36,-44.42 -1.83,2.79 -84.05,74.86 -16.27,63.33 0.8,-0.13 77.71,-45.85 86.93,-19.01 1.27,3.71 -3.52,10.3 -5.08,17.21 -3.33,14.8 -30.42,24.1 -63.56,69.22 -5.96,8.11 -22.87,-7.73 -40.71,-21.12 -25.47,-19.13 -52.84,-33.28 -52.84,34.49 8.42,53.62 31.91,15.74 33.31,52.43 0.16,4.2 15.92,1.13 19.41,48.58 0.6,8.18 -31.7,146.44 -57.64,102.16 -36.09,-61.59 3.28,-88.57 -70.06,-97.89 -0.44,-0.06 -11.05,-3.4 -11.37,-4.51 -63.93,-20.79 -83.59,-17.72 -55.72,-71.93 11.57,-22.51 -50.23,-75.44 -68.81,-81.88 -1.99,-0.4 -31.68,-22.13 -77.83,-31.97 -41.06,-8.76 -66.32,-28.81 -117.19,-28.32 -27.85,0.27 3.28,-28.88 -90.97,-9.23 -24.62,5.13 -29.35,-11.79 -49.07,-15.94 -1.74,-5.2 -190.13,-34.7 -210.35,-34.59 -8.7,-12.99 -133.72,-9.4 -169.38,-18.32 -49.14,-12.29 -249.55,-8.23 -294.22,-24.06 -17.8,-6.3 -58.28,1.54 -93.61,-8.31 -64.64,-18.02 -142.72,-6.73 -199.89,-25.42 0,0 -9.17,1.12 -9.83,-1.33z"/>
  <path class="fil2" d="M8984.96 3858.71c-0.78,25.6 13.64,37.58 17.7,47.68 9.94,24.7 16.48,17.31 12.8,17.81 -1.58,0.22 -16.75,-18.77 -5.63,-2.58 3.76,5.48 -5.32,15.54 -12.55,23.35 -8.15,8.79 -35.04,17.76 -46.3,30.74 -11.33,13.06 -24.36,28.46 -39.24,46.5 -8.87,10.76 -1.64,8.3 -11.89,21.04 -6.64,8.26 -18.36,35.46 -20.26,52.82 -4.73,43.2 28.08,110.94 -11.28,190.3 -3.81,7.7 16.75,22.1 11.72,30.01 -3.3,5.18 6.51,23.04 27.41,33.08 21.08,10.14 19.06,-1.44 60.37,-28.83 3.12,-2.06 26.3,-12.08 56.21,-14.79 35.97,-3.25 81.2,2 105.99,17.61 21.02,13.24 45.6,30.84 53.87,44.75 22.9,38.55 7.57,62.11 4.85,64.43 -4.03,3.43 4.85,28.54 -40.21,21.39 49.32,85.32 139.89,61.95 -157.2,122.42 -165.96,33.77 -142.62,103.31 -134.04,142.28 7.11,32.34 -61.62,42.73 -79.03,33.56 -0.59,-1.73 -10.15,-8.53 -12.08,-10.05 -5.61,-4.41 -22.08,-28.91 -37.94,-31.78 -130.13,-23.59 -732.65,5.46 -1043.49,22.6 -22.8,1.25 -43.82,12.85 -63.26,13.99 -78.06,4.57 -129.44,-5.28 -130.14,-4.59 -50.91,50.85 -197.81,69.66 -349.43,72.67 -49.54,0.97 -69.37,0.79 -119.33,-0.6 -110.55,-3.09 -210.31,-12.67 -261.05,-21.82 -5.54,-10.61 -203.07,-40.68 -347.87,-23.02 -13.31,1.62 -35.16,11.53 -47.16,17.57 -14.95,7.54 -49.62,28.52 -61.57,39.25 -18.07,16.21 -20.51,-1.1 -45.76,-39.87 -4.89,-7.52 -8.43,-16.1 -8.93,-25.99 -1.24,-24.48 -6.24,-61.91 54.53,-106.63 13.93,-10.24 39.32,-19.8 63.74,-30.16 5.89,-2.49 16.75,-3.39 21.58,-6.25 123.22,-73.06 124.22,-114.53 190.23,-174.63 36.04,-32.81 70.88,-91.72 176.26,-143.91 19.02,-9.41 39.33,-10.98 48.97,-18.71 14.36,-11.5 8.5,-22.25 9.42,-31.34 0.88,-8.79 4.39,-22.44 0.66,-30.38 -4.1,-8.71 -2.29,-13.24 -2.25,-22.7 0.03,-7.04 2.22,-32.06 9.55,-40.4 5.04,-5.73 2.33,-14.76 12.58,-21.42 6.82,-4.44 13.76,1.37 27.96,3.01 7.03,0.81 13.39,-7.24 20.54,-10.5 13.28,-6.05 28.83,-11.58 46.76,-18.48 33.5,-12.88 63.98,-24.52 92.51,-34.55 26.17,-9.2 39.48,-23.98 63.33,-33.57 20.49,-8.25 45.5,-4.43 67.37,-13.8 38.96,-16.68 77.02,-59.1 116.03,-91.7 6.56,-5.49 26.77,-14.86 58.2,-11.42 14.87,1.63 32.87,14.16 52.04,16.49 77.42,9.45 186.63,21.28 300.83,8.2 49.39,-5.65 100.62,-27.5 149.71,-44.68 18.5,-6.47 37.77,-13.97 55.8,-22.51 18.79,-8.89 53,-16.53 92.77,-37.53 48.72,-25.73 103.19,-54.34 138.82,-70.51 44.69,-4.83 66.19,-21.53 93.72,-18.27 156.29,18.49 94.66,110.18 280.19,-15.54 50.21,-34.03 78.36,79.09 200.45,48.03 95.71,-24.35 -21.63,99.22 237.29,67.35 20.67,-2.54 53.01,-18.5 55.13,4.58z"/>
  <path class="fil3" d="M9241.49 3737.7c41.72,-52.32 497.65,-298.15 525.15,-258.97 49.07,69.92 244.94,16.87 322.9,115.1 84.64,106.64 154.28,34.58 235.77,76.18 133.62,68.21 133.05,-170.95 301.35,-51.43 64.71,45.95 632.04,101.52 635.4,179.86 2.63,61.43 -111.11,385.82 -109.7,386.58 15.51,8.31 -12.4,14.5 -7.53,54.64 1.65,13.68 -3.24,25 7.69,47.46 1.88,3.86 2.92,12.71 6.12,18.91 34.48,66.83 86.06,285.3 -50.04,285.3 -70.3,0 -702.17,-2.07 -706.49,-3.27 -118.09,-32.73 -584.77,-32.73 -911,-37.39 -151.71,-2.17 -273.27,11.96 -316.17,2.03l7.62 -2.2c63.85,-29.73 -108.77,-78.2 0.83,-103.59 34.49,-100.04 -144.97,-170.47 -249.64,-96.19 -103.88,73.73 -138.39,-296.95 17.23,-375.01 108.88,-54.62 -44.82,-48.13 75.48,-127.21 14.33,-9.42 211.3,-109.94 215.03,-110.8z"/>
  <path class="fil4" d="M12187.21 3920.1c19.45,-19.81 30.28,-54.98 42.38,-88.06 12.55,-34.28 26.07,-66.78 26.46,-101.62 0.71,-61.94 -12.08,-124.02 -34.14,-165.38 -15.04,-28.22 -3.71,-12.23 -48.4,-87.82 -50.44,-85.32 127.08,-86.2 200.79,-101.17 9.84,-1.99 53.22,2.87 99.32,-6.62 38.81,-7.98 81.62,-28.26 87.61,-50.66 2.1,-6.7 9.89,-8.65 14.74,-6.03 10.1,5.46 19.12,26.13 23.44,39.25 8.49,25.77 21.43,42.05 24.87,69.02 2.31,18.12 4.67,49.44 8.05,55.7 3.22,5.98 -4.12,20.82 -5.18,52.11 -0.73,21.7 -3.74,56.56 14.82,72.45 8.49,7.27 4.14,30.69 29.2,56.71 5.8,6.02 13.96,7.55 21.25,14.25 4.88,4.5 6.62,14.54 17.41,17.97 11.6,3.68 25.83,-0.63 41.77,2.47 3.64,0.7 6.86,9.2 10.75,9.87 0,0.2 6.55,8.29 0.7,22.69 -11.95,29.44 -44.2,82.3 -68.97,126.78 -19.83,35.62 -41.29,66.55 -60.31,77.43 -21.24,12.16 -43.63,-28.48 -57.64,-75.04 -5.8,-19.29 -27.02,-33.71 -41.29,-43.67 -46.09,-32.17 -116.44,-12 -168.92,90.87 -17.48,34.26 -28,59.2 -46.3,68.05 -7.11,3.44 -27.23,6.79 -33.82,6.4 -28.46,-1.71 -47.33,-35.92 -68.86,-55.06 -6.29,-5.6 -23.59,2.09 -29.73,-0.89z"/>
  <path class="fil5 str0" d="M14306.95 1582.05c-5.07,6.94 -6.9,20.35 -9.05,26.55 -22.64,4.65 -134.88,334.67 -100.57,130.65 38.91,-231.42 -78.49,75.87 -114.94,-102.72 -16.31,-79.9 -54.47,108.76 -83.85,-35.64 -14.84,-72.94 -20.49,76.85 -65.17,-52.23 -30.07,-86.87 -100.86,94.38 -124.05,-18.51 -211.53,-43.97 -61.26,137.78 -183.75,55.71 -72.34,-48.47 -12.39,98.46 -87.69,10.3 -48.47,-56.74 -47.39,106.94 -76.01,-68.64 -7.62,-46.77 -56.58,30.5 -74.09,-18.69 -0.07,-0.19 -62.94,41.45 -84.82,47.95 -42.52,12.65 -60,-7.15 -69.65,-22.34 -2.49,-3.93 -1.34,-10 4.79,-18.78 34.18,-48.9 37.54,-47.27 25.4,-50.15 -5.19,-1.23 -16.12,-3.64 -28.26,2.19 -11.33,5.45 -23.75,19.13 -33.92,20.3 -21.74,2.51 -33.63,-14.94 -46.52,-18.97 -8.13,-2.55 -12.51,-9.61 -10.5,-23.82 0.96,-6.79 21.54,-3.39 25.46,-13.94 12.44,-33.46 -4.53,-47.49 -27.48,-59.52 -11.88,-6.23 -23.9,-17.71 -37.41,-18.93 -5.37,-0.48 -8.99,10.33 -14.05,10.56 -5.49,0.26 -12.43,-9.96 -17.11,-8.87 -23.9,5.6 -34.32,21.83 -1.94,45.85 0.94,0.7 12.14,12.39 8.61,18.34 -0.83,1.39 -11.71,3.75 -12.72,5.33 -3.15,4.89 -7.85,15.58 -12.32,21.36 -4.42,5.71 -11.73,-1.73 -16.74,3.62 -14.95,15.96 -31.07,27.67 -39.25,18.99 -4.9,-5.21 -12.94,-13.01 -11.98,-36.08 0.21,-5.05 13.97,-16.36 11.29,-20.08 -15.41,-21.31 -71.58,-22.5 -90.4,-22.5 -63.8,-2.86 -23.67,52.16 -99.07,-1.56 -46.09,-32.83 7.85,27.92 -8.67,46.49 -4.19,4.7 -22.68,-3.79 -37.09,-4.92 -65.9,82.83 -23.08,-53.87 -232.51,-79.66 -204.95,-25.23 -234.55,110.18 -345.9,-73.55 -71.95,-124.32 -41.55,-63.33 -60.53,-197.33 -7.76,-54.82 -51.96,-328.35 -106.73,-337.47 -9.48,-17.17 -351.33,-61.52 -92.01,-271.61 1.8,-1.46 1.62,-2.81 1.42,-4.88 -15.95,-62.18 129.58,-66.13 136.08,-140.45 6.19,-70.82 109.99,-50.37 18.69,-138.18 10.9,-49.65 -171.93,-64.19 67.44,-161.96 15.18,-6.19 43.44,-5.3 61.01,-9.38 4.47,-1.23 49.52,-6.13 104.76,-10.22 94.84,-7.03 219.66,8.2 221.22,28.16 14.76,188.72 -13.84,116.55 -13.84,237.07 103.25,-8.16 62.47,51.85 92.42,83.86 36.02,38.5 111.44,190.3 232.69,95.89 170.09,-132.43 255.97,92.49 351.11,-116.68 75.15,-165.22 369.15,-41.08 184.66,116.5 -62.1,53.05 126.09,118.56 261.2,22.22 6.2,-4.42 66.65,-13.24 76.67,-15.57 36.9,-22.26 302.23,-36.9 302.23,32.16 0,42.03 -6.32,55.05 2.46,97.81 89.29,31.05 -115.12,33.83 -23.96,193.76 42.49,74.55 72.13,120.99 162.14,169.63 66.5,35.94 82.26,132 92.06,192.5 -11.45,2.95 25.66,69.49 -1.56,133.15 -9.28,21.72 66.16,215.31 66.04,281.25 -0.02,10.87 -8.75,24.53 -13.74,25.68z"/>
  <path class="fil6" d="M11388.74 4298.47c2.27,1.79 1.11,-18.02 7.84,-36.57 11.02,-30.39 29.69,-78.45 57.9,-118 20.64,-28.92 45.43,-39.98 77.05,-49.56 33.63,-10.18 74.9,-16.99 122.71,18.55 9.42,7.01 20.35,34.11 32.65,49.1 4.07,4.97 11.29,1.72 14.7,5.13 8.31,-11.77 13.74,-40.07 16.21,-52.59 5.85,-29.65 15.26,-53.25 31.54,-69.45 21.32,-21.2 47.95,-34.75 66.94,-35.79 13.96,-0.76 42.01,13.72 72.82,32.95 18.33,11.45 40.63,8.5 58.32,21.73 18.98,14.21 29.32,48.53 41.5,59.69 22.95,21.05 51.28,35.15 79.35,-17.27 10.47,-19.56 27.92,8.16 42.67,-13.15 22.94,-33.15 57.41,-140.53 76.27,-173.14 80.02,-138.37 108.41,-271.43 -13.7,-442.88 -33.26,-46.7 110.07,-137.3 251.64,-276.57 30.11,-29.63 72.97,-54.56 98.35,-90.82 59.84,-85.51 116.65,-183.61 139.42,-293.62 95.86,-463.06 636.95,-370.65 368.62,-813.24 -524.39,-864.89 60.57,-571.85 -915.31,-63.06 -95.68,49.88 -358.14,245.25 -358.14,439.49 0,125.18 83.62,150.5 76.35,168.33 -3.31,8.13 -55.84,-23 -132.3,-5.93 -31.47,7.02 -52.53,53.88 -98.72,65.14 -43.98,127.06 -192.7,171.37 -345.97,190.39 -108.94,13.52 -213.87,6.53 -313.65,42.3 -18.45,6.61 -147.59,17.93 -167.21,24.72 -53.27,94.6 -100.28,189.56 -74.32,322.5 5.35,27.42 -3.83,56.97 -5.63,86.16 -1.25,20.23 -1.78,39.68 -4.72,60.96 -9.27,67.18 -15.44,140.05 -11.44,221.14 0.28,5.83 -54.29,57.55 -53.82,63.47 1.38,17.1 74.97,19.41 94.65,29.74 82.73,43.4 279.7,43.96 413.1,96.51 39.16,15.43 78.57,8.1 99.16,33.17 37.87,46.13 18.64,96.41 -17.77,219.89 -8,27.16 -29.71,51.6 -25.16,78.38 2.26,13.3 -24.99,68.54 -23.15,80.78 1.32,8.82 38.81,-11.65 48.53,-3.68 18.53,15.19 34.06,5.35 55.48,23.21 6.16,5.13 13.06,10.3 18.49,17.18 23.17,29.37 41.72,65.04 67.65,90.11 5.77,5.57 25.31,10.03 31.1,14.6z"/>
  <path class="fil7" d="M12985.58 1925.31c-23.39,-26.84 -30.72,-58.48 -48.53,-88.37 -69.58,-116.81 -100.38,-242.86 -121.25,-267.97 -1.77,-2.13 -57.24,-103.19 -63.07,-116.2 -8.17,-57.49 76.15,17.48 41.21,-43.09 20.8,-50.27 41.77,24.56 66.85,1.97 32.21,-29.02 -9.38,-5.37 44.54,-17.98 6.45,-18.73 89.34,2.52 93.42,26.31 0.27,-0.02 -33.85,14.25 8.33,56.42 8.79,8.79 16.17,-48.06 50.66,-23.53 3.18,-3.3 -10.2,-31.42 24.89,-31.42 0,-39.74 -77.83,-82.76 9.34,-54.7 5.68,1.83 -1.56,-21.17 40.95,7.23 0.96,0.64 51.87,-0.67 27.46,61.94 -54.72,12.58 34.22,76.13 52.01,43.69 5.8,-10.57 95.01,-42.93 13.97,53.31 -6.75,8.02 34.11,31.57 57.18,27.25 81.24,-15.22 59.8,-14.07 41.23,-6.26 -20.36,8.55 -39.33,22.63 35.42,-27.72 14.88,-10.03 24.85,-19.36 27.59,-17.36 7.54,5.53 -11.07,37.97 41.26,10.01 40.29,-21.53 43.12,24.27 40.13,59.81 -1.66,19.76 11.59,32.96 11.72,33.05 20.34,13.52 23.13,-32.07 40.59,-27.68 7.85,1.98 31.23,20.65 45.89,44.44 12.5,0 8.36,-9.23 12.9,-11.28 18.96,-8.57 -0.98,-41 22.52,-41.33 7.73,-0.1 11.66,16.21 34.53,20.86 62.41,12.71 -0.96,-14.29 33.87,12.8 2.19,1.71 7.81,0.16 8.87,-3.4 6.73,-22.67 5.93,-127.45 114.92,-75.39 34.62,16.53 -12.13,-34.47 38.33,38.75 2.32,3.36 6.46,-2.47 11.15,-3.36 72.06,-13.62 39.93,-99.98 90.65,-7.92 13.45,1.59 1.42,14.23 6.96,25.31 4.06,8.12 9.08,8.06 13.25,12.46 3.12,3.3 -4.66,14.54 10.12,10.07 5.71,-1.73 13.87,-21.95 22.05,-25.31 11.23,-4.61 13.51,30.32 16.17,49.42 2.72,19.59 8,27.91 16.32,30.09 5.71,1.5 11.12,7.11 25.37,-16.69 9.04,-15.12 23.8,-31.06 29.57,-25.94 10.95,9.7 16.3,48.84 27.06,73.78 6.52,15.14 15.16,7.51 28.13,2.53 7.46,-2.87 13.66,0.21 24.53,-14.41 20.22,-27.17 33.84,-35.27 47.02,-27.87 4.94,2.77 4.3,9.98 7.68,16.24 5.91,10.97 -5.94,31.12 -8.27,47.53 -1.1,7.72 -1.44,16.31 -3.74,23.85 -0.23,0.78 3.77,5.85 3.21,6.73 -14.44,22.64 2.22,86.85 -40.27,146.78 -0.09,0.13 -5.24,33.39 6.76,38.55 -19.09,32.57 -51.59,948.59 191.27,1016.89 0,1.44 -115.41,157.16 -130.57,183.86 -41.9,73.81 -130.14,74.3 -156.3,210.8 -50.54,131.81 311.25,323.87 261.86,354.25 -35.79,22.02 -189.05,262.07 -84.64,356.02 26.49,23.83 3.92,65.34 -44.35,107.18 -30.83,26.73 -86.78,47.37 -99.51,84.05 -81.14,28.15 -4.01,-80.89 -153.41,1.28 -9.32,5.12 -35.57,42 -34.63,53.97 -15.03,0.26 -25.04,19.44 -29.15,31.28 -66.96,13.76 -56.34,290.62 -79.6,290.62 -31.72,0 -187.64,-14.78 -286.74,-24.94 -48.54,-4.97 -70.63,7.45 -70.63,6.98 -0.03,-8.28 -12.88,-32.64 -12.84,-40.45 0.53,-87.07 6.8,-148.81 6.85,-243.24 0.04,-72.21 -34.08,-130.03 -68.84,-171.88 -15.39,-18.52 -46.34,-28.47 -59.07,-40.6 -20.68,-19.69 -13.22,-39.46 -2.78,-42.89 8.92,-2.93 15.82,7.36 57.56,19.98 5.98,1.81 85.66,102.99 145.14,122.51 23.67,7.77 43.63,4.31 44.74,-31.29 0.18,-5.68 -25.2,-8.74 -28.01,-22.27 -81.93,-28.45 -48.13,-153.26 25.48,-82.65 8.89,8.52 17.93,23.63 27.86,38.25 0.37,0.54 89.65,116.63 119.21,113.92 5.21,-0.47 17.52,3.92 17.52,-5.92 22.22,0 21.06,-44.24 21.78,-87.12 0.23,-13.95 -11.76,-27.75 -15.84,-34.62 -6.55,-11.03 -6.2,-11.13 -3.18,-16.74 4.43,-8.24 25.35,-18.57 45.74,-5.07 10.79,7.15 19.8,24.93 29.79,44.69 25.79,51.01 91.79,-154.65 27.81,-140.89 7.76,-18.61 82.74,-209.28 85.86,-215.02 -6.91,-4.17 61.39,-255.55 14.3,-329.67 -11.36,-17.87 -44.71,-86.15 -83.69,-159.29 -52.02,-97.6 -120.63,-175.1 -147.32,-210.73 -3.67,-17.86 -21.67,-19.29 -23.24,-29.32 -10.46,-3.6 -78.1,-114.51 -111.39,-137.89 -1.95,-1.37 -11.29,-13.86 -25.71,-34.06 -30.51,-42.72 -101.25,-118.71 -155.84,-198.56 -60.16,-88.02 -104.5,-180.51 -138.92,-232 -16.28,-24.37 -26.48,-39.87 -27.49,-41.94 -3.2,-0.66 -85.82,-119.76 -133.46,-91.8 30.58,18.35 3.89,-156.11 -34.27,-267.09 -10.37,-30.18 -30.27,-60.74 -41.41,-76.37 -0.12,-0.17 -21.04,-26.7 -21.39,-28.22z"/>
  <path class="fil8" d="M14183.49 946.86c-99.32,-33.35 -296.32,-213.58 -149.69,-328.45 55.33,-43.34 -9.24,19.78 -9.24,-96.41 0,-157.55 -297.31,-77.95 -293.43,-70.08 12.78,-117.47 108.08,-173.31 197.18,-238.21 39.33,-28.64 134.74,-78.78 164.97,-30.37 75.77,121.33 411.33,-76.76 480.67,-24.02 22.72,17.28 313.62,62.27 337.66,110.93 56.2,5.93 287.23,208.11 368.98,108.75 96.58,-117.41 48.48,-46.89 240.79,-23.31 94.88,11.63 -54.81,85.27 -111.2,182.95 -51.93,89.96 -164.31,141.31 -158.6,286.26 0.1,2.53 -4.72,8.7 -6.23,12.51 -0.53,-0.31 -63.86,39.95 -80.62,39.23 -53.85,-2.3 20.29,105.59 -109.03,52.22 -60.44,-24.95 -51.99,62.99 -103.48,81.31 -45.34,16.12 -74.46,66.14 -104.94,77.91 -22.5,63.96 -31.33,119.24 -47.91,151.68 -8.01,15.69 -14.86,28.64 -17.48,41.25l-3.38 2.17c-52.07,12.12 -113.9,142.36 -140.44,44.51 -16.2,-59.75 -152.04,-49.44 -195.25,51.58 -23.38,54.66 -126.28,187.54 -126.28,186.64 0,-154.53 -99.2,-222.41 -52.78,-325.14 4.39,-9.73 2.75,-27.88 3.21,-40.72 2.92,-81.42 -51.75,-206.53 -83.48,-253.19z"/>
  <path class="fil9" d="M14590.23 3591.02c59.9,-20.55 31.54,20.2 69.16,31.99 7.59,2.38 16.14,-3.43 30.57,-3.43 -0.64,-8.06 8.63,-15.37 9.23,-20.89 3.71,-34.34 11.24,21.31 -41.81,-52.94 -34.97,-48.94 146.99,-252.81 194.32,-166.67 20.12,36.61 28.93,-49.53 47.63,15.48 13.46,46.8 64.62,-62.61 101.8,-46.13 10.79,4.78 12.72,24.55 21.74,56.46 9.33,0.02 44.98,-73.05 -22.78,-104.21 -3.3,-1.52 -2.93,-4.4 -6.34,-6.41 -0.29,-0.17 -19.33,-41.75 23.12,-12.64 11.86,8.14 26.48,29.81 50.98,50.21 1.06,0.89 12.2,-193.33 31.23,-99.86 8.76,43.02 -11.3,-21.88 58.54,-27.05 6,-0.45 124.57,-188.28 28.85,-120.03 -16.25,11.59 -48.57,27.49 -53.15,13.82 -5.8,-17.34 39.17,-35.12 31.86,-57.84 0,-3.13 -13.55,-8.49 -25.15,-17.65 -15.09,-11.93 -29.22,-27.84 -29.37,-27.84 -12.71,31.22 -18.33,51.1 -30.85,48.65 -31.65,-6.18 -68.98,-90.21 -53.46,23.42 11.12,81.4 -12.24,-12.24 -39.3,66.52 -9.57,3.33 -31.1,-11.42 -32.6,-11.74 -5.13,-14.95 -18.73,-15.06 -28.86,-18.72 -9.95,-3.6 -16.4,-10.94 -29.42,-6.7 -12.15,3.95 -23.42,28.99 -37.42,36.06 -18.96,9.58 -41.46,1.27 -63.8,3.22 -23.2,2.03 -0.03,23.52 2.29,23.99 8.38,24.09 19.25,45.01 15.05,61.49 -9.47,37.17 -57.73,61.55 -111.14,41.99 -30.61,-11.21 -58.93,-41.78 -92.81,-80.23 -11.3,-12.82 -19.23,-32.87 -30.41,-49.02 -6.43,-9.29 -125.09,-109.4 -104.82,-160.62 -0.68,-1.03 -153.12,-82.59 -182.32,31.47 -42.37,165.52 -308.54,249.11 -190.22,454.43 6.88,11.94 200.59,186.36 218.47,192.57 17.43,61.43 142.01,7.26 164.58,-24.88 0.2,-0.28 32.59,-9.99 60.18,-20.74 19.02,-7.41 33.9,-20.78 46.43,-15.53z"/>
  <path class="fil10" d="M13266.91 4015.88c-12.54,60.16 -4.05,30.95 -1.18,65.29 0.4,4.78 3.39,10.72 1.77,18.32 -0.8,3.8 -6.99,8.02 -6.8,12.76 1.6,38.07 -216.06,101.64 -180.12,16.35 12.45,-29.52 168.05,45.14 143.09,-77.43 -1.03,-5.05 -13.34,-51.66 -4.04,-51.55l-2.89 -8.32c58.61,29.83 82.03,-71.71 97.05,-90.55 91.16,-114.31 2.61,-114.97 -72.14,-179.12 -31.45,-27 -49.54,-16.45 -61.75,-2.33 -27.11,31.35 -22.87,116.33 -54.06,102.12 -126.01,-57.42 -75.91,122.1 -126.32,92.77 -55.34,-32.19 -88.08,-9.49 -88.88,-10.16 -91.27,-75.68 -81.82,26.76 -170.24,-0.85 -33.6,-10.49 -51.63,-20.17 -58.87,-24.76 -14.95,-9.5 29.44,-30.23 76.47,-144.68 34.9,-84.94 -57.65,-23.97 -66.14,-65.27 -52.25,-17.51 -67.43,-137.84 -66.76,-139.46 28.92,-70 -39.48,-261.29 -66.6,-215.66 -54.22,91.25 -261.75,47.77 -360.67,91.86 139.63,-297.72 328.61,-40.19 499.7,-726.13 9.42,-37.77 42.76,-70.43 79.77,-105.61 87.66,-83.34 159.03,-139.29 207.2,-169.7 2.95,-12.4 45.74,-37.05 49.23,-46.69 52.66,-145.42 164.15,7.48 216.21,95.38 80.63,136.16 248.73,395.93 373.4,488.41 10.85,8.05 19.43,53.97 36.49,57.51 3.67,10.59 189.9,274.89 194.96,276.21 -2.94,6.15 204.15,238.7 13.82,579.69 -24.4,43.72 -11.71,131.88 -99.78,156.55 -26.24,7.35 -65.89,-6.32 -112.43,-12.61 -25.14,-3.39 -36.22,-23 -42.82,-46.34 -4.54,-16.09 20.5,-29.35 17.04,-44.92 -3.72,-16.73 -36.15,-35.48 -46.17,-41.83 -49.54,-31.45 -140.13,20.39 -160.02,34.77 -18.2,13.16 -27.27,18.41 -49.28,-2.4 -2.81,-2.65 -8.36,1.89 -12.01,5.04 -16.96,14.63 -16.82,104.29 -96.23,113.34z"/>
  <path class="fil5 str1" d="M12538.94 21.68c6.98,28.78 8.02,44.62 8.82,67.42 5.21,148.61 -94.61,180.2 43.45,218.01 65.33,17.89 26.68,325.61 312.14,150.78 98.8,-60.52 255.74,76.26 285.88,-72.58 30.07,-148.5 376.9,-89.9 204.74,65.44 -162.11,146.27 283.29,75.26 286.16,42.19 17.18,-4.33 209.2,-193.13 210.76,-210.65 8.5,-0.49 59.12,-36.16 60.34,-40.64 248.1,-78.53 63.3,-6.88 374.72,-13.01 81.43,-1.6 204.16,-117.89 290.89,-36.4 18.62,17.5 202.41,17.44 349.12,135.85 342.04,276.08 326.86,-71.57 458.12,41.21 66.43,57.09 274.26,32.24 354.2,-93.38 12.02,-18.89 106.28,-13.89 182.82,-156.99 0.49,-0.93 85.9,-43.03 -8.69,-114.49 -22.1,-16.7 -2762.35,20.56 -3091.41,-0.87 -27.05,-1.75 -189.42,18.71 -273.71,18.19 -29.1,-0.18 -50.03,-7.04 -48.35,-0.08z"/>
  <path class="fil11 str2" d="M14736.12 3621.19c32.18,-22.55 54.54,79.59 8.91,4.2 -2.2,-3.64 -0.91,-9.81 -8.91,-4.2z"/>
  <path class="fil12" d="M14253.61 661.07l0 -51.75 12.91 0 0 12.49 -1.06 0c0.99,-4.24 2.93,-7.46 5.82,-9.69 2.9,-2.22 6.74,-3.51 11.54,-3.86l4.02 -0.32 0.85 11.22 -7.62 0.74c-4.31,0.43 -7.55,1.75 -9.74,3.97 -2.19,2.22 -3.28,5.35 -3.28,9.37l0 27.83 -13.44 0z"/>
  <path id="_1" class="fil12" d="M14294.25 598.21l0 -12.91 14.82 0 0 12.91 -14.82 0zm0.85 62.86l0 -51.75 13.23 0 0 51.75 -13.23 0z"/>
  <path id="_2" class="fil12" d="M14345.69 662.13c-5.43,0 -10.11,-1.1 -14.02,-3.28 -3.92,-2.19 -6.97,-5.29 -9.16,-9.32 -2.18,-4.02 -3.28,-8.78 -3.28,-14.28 0,-5.58 1.1,-10.37 3.28,-14.4 2.19,-4.02 5.24,-7.12 9.16,-9.31 3.91,-2.19 8.59,-3.28 14.02,-3.28 5.36,0 10.02,1.09 13.97,3.28 3.95,2.19 7.02,5.31 9.21,9.37 2.18,4.05 3.28,8.8 3.28,14.23 0,5.58 -1.1,10.37 -3.28,14.39 -2.19,4.03 -5.26,7.13 -9.21,9.32 -3.95,2.18 -8.61,3.28 -13.97,3.28zm-0.11 -10.06c4.02,0 7.23,-1.42 9.63,-4.28 2.4,-2.86 3.6,-7.07 3.6,-12.65 0,-5.64 -1.2,-9.86 -3.6,-12.65 -2.4,-2.78 -5.61,-4.18 -9.63,-4.18 -3.88,0 -7.02,1.4 -9.42,4.18 -2.39,2.79 -3.59,7.01 -3.59,12.65 0,5.58 1.2,9.79 3.59,12.65 2.4,2.86 5.54,4.28 9.42,4.28z"/>
  <path id="_3" class="fil12" d="M14431.51 662.13c-4.51,0 -8.48,-1.1 -11.9,-3.28 -3.42,-2.19 -6.09,-5.31 -7.99,-9.37 -1.91,-4.06 -2.86,-8.84 -2.86,-14.34 0,-5.57 0.95,-10.35 2.86,-14.34 1.9,-3.98 4.57,-7.07 7.99,-9.26 3.42,-2.19 7.39,-3.28 11.9,-3.28 4.31,0 8.07,1.06 11.28,3.18 3.21,2.11 5.38,4.9 6.5,8.36l-1.16 0 0 -33.34 13.23 0 0 74.61 -12.91 0 0 -11.01 0.95 0c-1.06,3.67 -3.21,6.6 -6.46,8.79 -3.24,2.18 -7.05,3.28 -11.43,3.28zm3.71 -10.06c3.95,0 7.12,-1.42 9.52,-4.28 2.4,-2.86 3.6,-7.07 3.6,-12.65 0,-5.64 -1.2,-9.86 -3.6,-12.65 -2.4,-2.78 -5.57,-4.18 -9.52,-4.18 -3.95,0 -7.13,1.4 -9.53,4.18 -2.39,2.79 -3.59,7.01 -3.59,12.65 0,5.58 1.2,9.79 3.59,12.65 2.4,2.86 5.58,4.28 9.53,4.28z"/>
  <path id="_4" class="fil12" d="M14492.16 662.13c-3.74,0 -7.08,-0.72 -10,-2.17 -2.93,-1.45 -5.22,-3.41 -6.88,-5.87 -1.66,-2.47 -2.49,-5.26 -2.49,-8.37 0,-3.81 0.99,-6.82 2.96,-9.04 1.98,-2.23 5.19,-3.83 9.63,-4.82 4.45,-0.99 10.41,-1.48 17.89,-1.48l5.29 0 0 7.62 -5.18 0c-3.32,0 -6.11,0.12 -8.37,0.37 -2.25,0.25 -4.07,0.63 -5.45,1.16 -1.37,0.53 -2.36,1.26 -2.96,2.17 -0.6,0.92 -0.9,2.05 -0.9,3.39 0,2.33 0.81,4.23 2.44,5.71 1.62,1.49 3.88,2.23 6.77,2.23 2.33,0 4.39,-0.55 6.19,-1.64 1.8,-1.1 3.23,-2.6 4.29,-4.5 1.05,-1.91 1.58,-4.09 1.58,-6.56l0 -12.17c0,-3.53 -0.77,-6.07 -2.32,-7.62 -1.56,-1.56 -4.17,-2.33 -7.84,-2.33 -2.89,0 -5.85,0.44 -8.89,1.32 -3.03,0.88 -6.1,2.24 -9.2,4.08l-3.81 -9c1.83,-1.27 4,-2.38 6.51,-3.33 2.5,-0.96 5.15,-1.7 7.93,-2.23 2.79,-0.52 5.42,-0.79 7.89,-0.79 5.08,0 9.26,0.78 12.54,2.33 3.28,1.55 5.73,3.9 7.35,7.04 1.63,3.14 2.44,7.18 2.44,12.11l0 31.33 -12.38 0 0 -11.01 0.84 0c-0.49,2.47 -1.46,4.61 -2.91,6.41 -1.44,1.8 -3.26,3.19 -5.45,4.18 -2.19,0.98 -4.69,1.48 -7.51,1.48z"/>
  <path id="_5" class="fil12" d="M14551.95 662.13c-2.89,0 -5.69,-0.25 -8.41,-0.74 -2.72,-0.5 -5.2,-1.18 -7.46,-2.07 -2.26,-0.88 -4.24,-1.99 -5.93,-3.33l3.39 -8.68c1.76,1.13 3.67,2.12 5.71,2.97 2.05,0.84 4.17,1.48 6.35,1.9 2.19,0.42 4.34,0.64 6.46,0.64 3.38,0 5.91,-0.59 7.57,-1.75 1.65,-1.17 2.48,-2.7 2.48,-4.6 0,-1.63 -0.54,-2.88 -1.64,-3.76 -1.09,-0.88 -2.73,-1.54 -4.92,-1.96l-10.58 -2.01c-4.38,-0.85 -7.71,-2.45 -10,-4.82 -2.3,-2.36 -3.44,-5.41 -3.44,-9.15 0,-3.39 0.93,-6.31 2.8,-8.78 1.87,-2.47 4.46,-4.38 7.78,-5.72 3.32,-1.34 7.13,-2.01 11.43,-2.01 2.47,0 4.87,0.23 7.2,0.69 2.32,0.46 4.53,1.13 6.61,2.01 2.08,0.88 3.9,2.03 5.45,3.44l-3.6 8.68c-1.34,-1.13 -2.89,-2.1 -4.65,-2.91 -1.77,-0.81 -3.58,-1.45 -5.45,-1.91 -1.87,-0.46 -3.69,-0.69 -5.45,-0.69 -3.46,0 -6.02,0.6 -7.68,1.8 -1.65,1.2 -2.48,2.79 -2.48,4.77 0,1.48 0.49,2.71 1.48,3.7 0.99,0.99 2.5,1.66 4.55,2.01l10.58 2.01c4.59,0.85 8.06,2.4 10.43,4.66 2.36,2.26 3.54,5.29 3.54,9.1 0,3.46 -0.92,6.42 -2.75,8.89 -1.83,2.47 -4.41,4.36 -7.73,5.66 -3.31,1.31 -7.19,1.96 -11.64,1.96z"/>
  <path id="_6" class="fil12" d="M14636.83 662.13c-5.43,0 -10.11,-1.1 -14.02,-3.28 -3.92,-2.19 -6.97,-5.29 -9.16,-9.32 -2.18,-4.02 -3.28,-8.78 -3.28,-14.28 0,-5.58 1.1,-10.37 3.28,-14.4 2.19,-4.02 5.24,-7.12 9.16,-9.31 3.91,-2.19 8.59,-3.28 14.02,-3.28 5.36,0 10.02,1.09 13.97,3.28 3.95,2.19 7.02,5.31 9.21,9.37 2.18,4.05 3.28,8.8 3.28,14.23 0,5.58 -1.1,10.37 -3.28,14.39 -2.19,4.03 -5.26,7.13 -9.21,9.32 -3.95,2.18 -8.61,3.28 -13.97,3.28zm-0.11 -10.06c4.02,0 7.23,-1.42 9.63,-4.28 2.4,-2.86 3.6,-7.07 3.6,-12.65 0,-5.64 -1.2,-9.86 -3.6,-12.65 -2.4,-2.78 -5.61,-4.18 -9.63,-4.18 -3.88,0 -7.02,1.4 -9.42,4.18 -2.39,2.79 -3.59,7.01 -3.59,12.65 0,5.58 1.2,9.79 3.59,12.65 2.4,2.86 5.54,4.28 9.42,4.28z"/>
  <path id="_7" class="fil12" d="M14693.13 662.13c-2.89,0 -5.69,-0.25 -8.41,-0.74 -2.72,-0.5 -5.2,-1.18 -7.46,-2.07 -2.26,-0.88 -4.24,-1.99 -5.93,-3.33l3.39 -8.68c1.76,1.13 3.67,2.12 5.71,2.97 2.05,0.84 4.17,1.48 6.35,1.9 2.19,0.42 4.34,0.64 6.46,0.64 3.38,0 5.91,-0.59 7.57,-1.75 1.65,-1.17 2.48,-2.7 2.48,-4.6 0,-1.63 -0.54,-2.88 -1.64,-3.76 -1.09,-0.88 -2.73,-1.54 -4.92,-1.96l-10.58 -2.01c-4.38,-0.85 -7.71,-2.45 -10,-4.82 -2.3,-2.36 -3.44,-5.41 -3.44,-9.15 0,-3.39 0.93,-6.31 2.8,-8.78 1.87,-2.47 4.46,-4.38 7.78,-5.72 3.32,-1.34 7.13,-2.01 11.43,-2.01 2.47,0 4.87,0.23 7.2,0.69 2.32,0.46 4.53,1.13 6.61,2.01 2.08,0.88 3.9,2.03 5.45,3.44l-3.6 8.68c-1.34,-1.13 -2.89,-2.1 -4.65,-2.91 -1.77,-0.81 -3.58,-1.45 -5.45,-1.91 -1.87,-0.46 -3.69,-0.69 -5.45,-0.69 -3.46,0 -6.02,0.6 -7.68,1.8 -1.65,1.2 -2.48,2.79 -2.48,4.77 0,1.48 0.49,2.71 1.48,3.7 0.99,0.99 2.5,1.66 4.55,2.01l10.58 2.01c4.59,0.85 8.06,2.4 10.43,4.66 2.36,2.26 3.54,5.29 3.54,9.1 0,3.46 -0.92,6.42 -2.75,8.89 -1.83,2.47 -4.41,4.36 -7.73,5.66 -3.31,1.31 -7.19,1.96 -11.64,1.96z"/>
  <path id="_8" class="fil12" d="M14749.01 662.13c-6.91,0 -12.06,-1.73 -15.45,-5.19 -3.38,-3.45 -5.08,-8.5 -5.08,-15.13l0 -22.54 -9.94 0 0 -9.95 9.94 0 0 -15.45 13.23 0 0 15.45 15.67 0 0 9.95 -15.67 0 0 21.8c0,3.38 0.74,5.92 2.23,7.62 1.48,1.69 3.88,2.54 7.19,2.54 0.99,0 2.01,-0.13 3.07,-0.37 1.06,-0.25 2.15,-0.51 3.28,-0.8l2.01 9.74c-1.27,0.71 -2.87,1.27 -4.81,1.69 -1.94,0.43 -3.83,0.64 -5.67,0.64z"/>
  <path id="_9" class="fil12" d="M14765.95 661.07l0 -51.75 12.91 0 0 12.49 -1.06 0c0.99,-4.24 2.93,-7.46 5.82,-9.69 2.9,-2.22 6.74,-3.51 11.54,-3.86l4.02 -0.32 0.85 11.22 -7.62 0.74c-4.31,0.43 -7.55,1.75 -9.74,3.97 -2.19,2.22 -3.28,5.35 -3.28,9.37l0 27.83 -13.44 0z"/>
  <path id="_10" class="fil12" d="M14823.95 662.13c-3.74,0 -7.08,-0.72 -10,-2.17 -2.93,-1.45 -5.22,-3.41 -6.88,-5.87 -1.66,-2.47 -2.49,-5.26 -2.49,-8.37 0,-3.81 0.99,-6.82 2.96,-9.04 1.98,-2.23 5.19,-3.83 9.63,-4.82 4.45,-0.99 10.41,-1.48 17.89,-1.48l5.29 0 0 7.62 -5.18 0c-3.32,0 -6.11,0.12 -8.37,0.37 -2.25,0.25 -4.07,0.63 -5.45,1.16 -1.37,0.53 -2.36,1.26 -2.96,2.17 -0.6,0.92 -0.9,2.05 -0.9,3.39 0,2.33 0.81,4.23 2.44,5.71 1.62,1.49 3.88,2.23 6.77,2.23 2.33,0 4.39,-0.55 6.19,-1.64 1.8,-1.1 3.23,-2.6 4.29,-4.5 1.05,-1.91 1.58,-4.09 1.58,-6.56l0 -12.17c0,-3.53 -0.77,-6.07 -2.32,-7.62 -1.56,-1.56 -4.17,-2.33 -7.84,-2.33 -2.89,0 -5.85,0.44 -8.89,1.32 -3.03,0.88 -6.1,2.24 -9.2,4.08l-3.81 -9c1.83,-1.27 4,-2.38 6.51,-3.33 2.5,-0.96 5.15,-1.7 7.93,-2.23 2.79,-0.52 5.42,-0.79 7.89,-0.79 5.08,0 9.26,0.78 12.54,2.33 3.28,1.55 5.73,3.9 7.35,7.04 1.63,3.14 2.44,7.18 2.44,12.11l0 31.33 -12.38 0 0 -11.01 0.84 0c-0.49,2.47 -1.46,4.61 -2.91,6.41 -1.44,1.8 -3.26,3.19 -5.45,4.18 -2.19,0.98 -4.69,1.48 -7.51,1.48z"/>
  <path id="_11" class="fil12" d="M14883.74 662.13c-2.89,0 -5.69,-0.25 -8.41,-0.74 -2.72,-0.5 -5.2,-1.18 -7.46,-2.07 -2.26,-0.88 -4.24,-1.99 -5.93,-3.33l3.39 -8.68c1.76,1.13 3.67,2.12 5.71,2.97 2.05,0.84 4.17,1.48 6.35,1.9 2.19,0.42 4.34,0.64 6.46,0.64 3.38,0 5.91,-0.59 7.57,-1.75 1.65,-1.17 2.48,-2.7 2.48,-4.6 0,-1.63 -0.54,-2.88 -1.64,-3.76 -1.09,-0.88 -2.73,-1.54 -4.92,-1.96l-10.58 -2.01c-4.38,-0.85 -7.71,-2.45 -10,-4.82 -2.3,-2.36 -3.44,-5.41 -3.44,-9.15 0,-3.39 0.93,-6.31 2.8,-8.78 1.87,-2.47 4.46,-4.38 7.78,-5.72 3.32,-1.34 7.13,-2.01 11.43,-2.01 2.47,0 4.87,0.23 7.2,0.69 2.32,0.46 4.53,1.13 6.61,2.01 2.08,0.88 3.9,2.03 5.45,3.44l-3.6 8.68c-1.34,-1.13 -2.89,-2.1 -4.65,-2.91 -1.77,-0.81 -3.58,-1.45 -5.45,-1.91 -1.87,-0.46 -3.69,-0.69 -5.45,-0.69 -3.46,0 -6.02,0.6 -7.68,1.8 -1.65,1.2 -2.48,2.79 -2.48,4.77 0,1.48 0.49,2.71 1.48,3.7 0.99,0.99 2.5,1.66 4.55,2.01l10.58 2.01c4.59,0.85 8.06,2.4 10.43,4.66 2.36,2.26 3.54,5.29 3.54,9.1 0,3.46 -0.92,6.42 -2.75,8.89 -1.83,2.47 -4.41,4.36 -7.73,5.66 -3.31,1.31 -7.19,1.96 -11.64,1.96z"/>
  <path class="fil12" d="M13618.01 2789.94c-5.44,0 -10.16,-1.11 -14.18,-3.34 -4.03,-2.22 -7.13,-5.38 -9.32,-9.47 -2.18,-4.09 -3.28,-8.89 -3.28,-14.39 0,-5.5 1.1,-10.25 3.28,-14.23 2.19,-3.99 5.29,-7.06 9.32,-9.21 4.02,-2.15 8.74,-3.23 14.18,-3.23 3.31,0 6.59,0.53 9.84,1.59 3.24,1.06 5.93,2.54 8.04,4.44l-3.91 9.21c-1.84,-1.62 -3.9,-2.86 -6.19,-3.7 -2.3,-0.85 -4.5,-1.27 -6.62,-1.27 -4.59,0 -8.13,1.43 -10.64,4.28 -2.5,2.86 -3.75,6.93 -3.75,12.23 0,5.22 1.25,9.33 3.75,12.33 2.51,2.99 6.05,4.49 10.64,4.49 2.05,0 4.23,-0.42 6.56,-1.27 2.33,-0.84 4.41,-2.11 6.25,-3.81l3.91 9.32c-2.11,1.83 -4.81,3.29 -8.09,4.39 -3.28,1.09 -6.55,1.64 -9.79,1.64z"/>
  <path id="_1_0" class="fil12" d="M13660.76 2789.94c-3.74,0 -7.08,-0.72 -10,-2.17 -2.93,-1.45 -5.22,-3.41 -6.88,-5.87 -1.66,-2.47 -2.49,-5.26 -2.49,-8.37 0,-3.81 0.99,-6.82 2.96,-9.04 1.98,-2.23 5.19,-3.83 9.63,-4.82 4.45,-0.99 10.41,-1.48 17.89,-1.48l5.29 0 0 7.62 -5.18 0c-3.32,0 -6.11,0.12 -8.37,0.37 -2.25,0.25 -4.07,0.63 -5.45,1.16 -1.37,0.53 -2.36,1.26 -2.96,2.17 -0.6,0.92 -0.9,2.05 -0.9,3.39 0,2.33 0.81,4.23 2.44,5.71 1.62,1.49 3.88,2.23 6.77,2.23 2.33,0 4.39,-0.55 6.19,-1.64 1.8,-1.1 3.23,-2.6 4.29,-4.5 1.05,-1.91 1.58,-4.09 1.58,-6.56l0 -12.17c0,-3.53 -0.77,-6.07 -2.32,-7.62 -1.56,-1.56 -4.17,-2.33 -7.84,-2.33 -2.89,0 -5.85,0.44 -8.89,1.32 -3.03,0.88 -6.1,2.24 -9.2,4.08l-3.81 -9c1.83,-1.27 4,-2.38 6.51,-3.33 2.5,-0.96 5.15,-1.7 7.93,-2.23 2.79,-0.52 5.42,-0.79 7.89,-0.79 5.08,0 9.26,0.78 12.54,2.33 3.28,1.55 5.73,3.9 7.35,7.04 1.63,3.14 2.44,7.18 2.44,12.11l0 31.33 -12.38 0 0 -11.01 0.84 0c-0.49,2.47 -1.46,4.61 -2.91,6.41 -1.44,1.8 -3.26,3.19 -5.45,4.18 -2.19,0.98 -4.69,1.48 -7.51,1.48z"/>
  <path id="_2_1" class="fil12" d="M13731.45 2789.94c-4.37,0 -8.2,-1.1 -11.48,-3.28 -3.28,-2.19 -5.45,-5.12 -6.51,-8.79l1.06 0 0 11.01 -12.91 0 0 -74.61 13.23 0 0 33.34 -1.27 0c1.13,-3.46 3.31,-6.25 6.56,-8.36 3.24,-2.12 7.02,-3.18 11.32,-3.18 4.59,0 8.58,1.09 11.96,3.28 3.39,2.19 6.03,5.28 7.94,9.26 1.9,3.99 2.86,8.77 2.86,14.34 0,5.5 -0.96,10.28 -2.86,14.34 -1.91,4.06 -4.57,7.18 -7.99,9.37 -3.42,2.18 -7.39,3.28 -11.91,3.28zm-3.7 -10.06c3.95,0 7.12,-1.42 9.52,-4.28 2.4,-2.86 3.6,-7.07 3.6,-12.65 0,-5.64 -1.2,-9.86 -3.6,-12.65 -2.4,-2.78 -5.57,-4.18 -9.52,-4.18 -3.95,0 -7.13,1.4 -9.53,4.18 -2.39,2.79 -3.59,7.01 -3.59,12.65 0,5.58 1.2,9.79 3.59,12.65 2.4,2.86 5.58,4.28 9.53,4.28z"/>
  <path id="_3_2" class="fil12" d="M13788.71 2789.94c-5.43,0 -10.11,-1.1 -14.02,-3.28 -3.92,-2.19 -6.97,-5.29 -9.16,-9.32 -2.18,-4.02 -3.28,-8.78 -3.28,-14.28 0,-5.58 1.1,-10.37 3.28,-14.4 2.19,-4.02 5.24,-7.12 9.16,-9.31 3.91,-2.19 8.59,-3.28 14.02,-3.28 5.36,0 10.02,1.09 13.97,3.28 3.95,2.19 7.02,5.31 9.21,9.37 2.18,4.05 3.28,8.8 3.28,14.23 0,5.58 -1.1,10.37 -3.28,14.39 -2.19,4.03 -5.26,7.13 -9.21,9.32 -3.95,2.18 -8.61,3.28 -13.97,3.28zm-0.11 -10.06c4.02,0 7.23,-1.42 9.63,-4.28 2.4,-2.86 3.6,-7.07 3.6,-12.65 0,-5.64 -1.2,-9.86 -3.6,-12.65 -2.4,-2.78 -5.61,-4.18 -9.63,-4.18 -3.88,0 -7.02,1.4 -9.42,4.18 -2.39,2.79 -3.59,7.01 -3.59,12.65 0,5.58 1.2,9.79 3.59,12.65 2.4,2.86 5.54,4.28 9.42,4.28z"/>
  <path id="_4_3" class="fil12" d="M13858.13 2788.88l0 -41.8 -9.95 0 0 -9.95 13.76 0 -3.81 3.49 0 -3.6c0,-7.33 1.92,-12.87 5.77,-16.61 3.84,-3.74 9.82,-5.86 17.94,-6.35l5.18 -0.32 0.85 9.74 -4.87 0.31c-2.82,0.15 -5.08,0.66 -6.77,1.54 -1.7,0.88 -2.93,2.1 -3.71,3.65 -0.77,1.55 -1.16,3.53 -1.16,5.93l0 3.91 -1.69 -1.69 15.77 0 0 9.95 -14.08 0 0 41.8 -13.23 0z"/>
  <path id="_5_4" class="fil12" d="M13893.16 2788.88l0 -51.75 12.91 0 0 12.49 -1.06 0c0.99,-4.24 2.93,-7.46 5.82,-9.69 2.9,-2.22 6.74,-3.51 11.54,-3.86l4.02 -0.32 0.85 11.22 -7.62 0.74c-4.31,0.43 -7.55,1.75 -9.74,3.97 -2.19,2.22 -3.28,5.35 -3.28,9.37l0 27.83 -13.44 0z"/>
  <path id="_6_5" class="fil12" d="M13933.8 2726.02l0 -12.91 14.82 0 0 12.91 -14.82 0zm0.85 62.86l0 -51.75 13.23 0 0 51.75 -13.23 0z"/>
  <path id="_7_6" class="fil12" d="M13985.24 2789.94c-5.43,0 -10.11,-1.1 -14.02,-3.28 -3.92,-2.19 -6.97,-5.29 -9.16,-9.32 -2.18,-4.02 -3.28,-8.78 -3.28,-14.28 0,-5.58 1.1,-10.37 3.28,-14.4 2.19,-4.02 5.24,-7.12 9.16,-9.31 3.91,-2.19 8.59,-3.28 14.02,-3.28 5.36,0 10.02,1.09 13.97,3.28 3.95,2.19 7.02,5.31 9.21,9.37 2.18,4.05 3.28,8.8 3.28,14.23 0,5.58 -1.1,10.37 -3.28,14.39 -2.19,4.03 -5.26,7.13 -9.21,9.32 -3.95,2.18 -8.61,3.28 -13.97,3.28zm-0.11 -10.06c4.02,0 7.23,-1.42 9.63,-4.28 2.4,-2.86 3.6,-7.07 3.6,-12.65 0,-5.64 -1.2,-9.86 -3.6,-12.65 -2.4,-2.78 -5.61,-4.18 -9.63,-4.18 -3.88,0 -7.02,1.4 -9.42,4.18 -2.39,2.79 -3.59,7.01 -3.59,12.65 0,5.58 1.2,9.79 3.59,12.65 2.4,2.86 5.54,4.28 9.42,4.28z"/>
  <path class="fil12" d="M14319.37 3376.9c-4.37,0 -8.2,-1.1 -11.48,-3.28 -3.28,-2.19 -5.45,-5.12 -6.51,-8.79l1.06 0 0 11.01 -12.91 0 0 -74.61 13.23 0 0 33.34 -1.27 0c1.13,-3.46 3.31,-6.25 6.56,-8.36 3.24,-2.12 7.02,-3.18 11.32,-3.18 4.59,0 8.58,1.09 11.96,3.28 3.39,2.19 6.03,5.28 7.94,9.26 1.9,3.99 2.86,8.77 2.86,14.34 0,5.5 -0.96,10.28 -2.86,14.34 -1.91,4.06 -4.57,7.18 -7.99,9.37 -3.42,2.18 -7.39,3.28 -11.91,3.28zm-3.7 -10.06c3.95,0 7.12,-1.42 9.52,-4.28 2.4,-2.86 3.6,-7.07 3.6,-12.65 0,-5.64 -1.2,-9.86 -3.6,-12.65 -2.4,-2.78 -5.57,-4.18 -9.52,-4.18 -3.95,0 -7.13,1.4 -9.53,4.18 -2.39,2.79 -3.59,7.01 -3.59,12.65 0,5.58 1.2,9.79 3.59,12.65 2.4,2.86 5.58,4.28 9.53,4.28z"/>
  <path id="_1_7" class="fil12" d="M14371.76 3376.9c-4.3,0 -7.87,-0.8 -10.69,-2.38 -2.82,-1.59 -4.92,-3.97 -6.29,-7.15 -1.38,-3.17 -2.07,-7.12 -2.07,-11.85l0 -31.43 13.23 0 0 31.64c0,2.4 0.32,4.43 0.95,6.09 0.64,1.66 1.66,2.85 3.07,3.6 1.41,0.74 3.18,1.11 5.29,1.11 2.4,0 4.5,-0.55 6.3,-1.64 1.8,-1.1 3.21,-2.63 4.23,-4.61 1.03,-1.97 1.54,-4.34 1.54,-7.09l0 -29.1 13.23 0 0 51.75 -12.91 0 0 -10.79 1.48 0c-1.48,3.81 -3.72,6.73 -6.72,8.78 -3,2.05 -6.55,3.07 -10.64,3.07z"/>
  <polygon id="_2_8" class="fil12" points="14412.62,3375.84 14412.62,3367.27 14441.82,3330.86 14441.82,3334.04 14412.62,3334.04 14412.62,3324.09 14453.68,3324.09 14453.68,3332.66 14424.15,3369.38 14424.15,3365.89 14454.84,3365.89 14454.84,3375.84 "/>
  <path id="_3_9" class="fil12" d="M14463.62 3312.98l0 -12.91 14.82 0 0 12.91 -14.82 0zm0.85 62.86l0 -51.75 13.23 0 0 51.75 -13.23 0z"/>
  <path id="_4_10" class="fil12" d="M14515.06 3376.9c-5.43,0 -10.11,-1.1 -14.02,-3.28 -3.92,-2.19 -6.97,-5.29 -9.16,-9.32 -2.18,-4.02 -3.28,-8.78 -3.28,-14.28 0,-5.58 1.1,-10.37 3.28,-14.4 2.19,-4.02 5.24,-7.12 9.16,-9.31 3.91,-2.19 8.59,-3.28 14.02,-3.28 5.36,0 10.02,1.09 13.97,3.28 3.95,2.19 7.02,5.31 9.21,9.37 2.18,4.05 3.28,8.8 3.28,14.23 0,5.58 -1.1,10.37 -3.28,14.39 -2.19,4.03 -5.26,7.13 -9.21,9.32 -3.95,2.18 -8.61,3.28 -13.97,3.28zm-0.11 -10.06c4.02,0 7.23,-1.42 9.63,-4.28 2.4,-2.86 3.6,-7.07 3.6,-12.65 0,-5.64 -1.2,-9.86 -3.6,-12.65 -2.4,-2.78 -5.61,-4.18 -9.63,-4.18 -3.88,0 -7.02,1.4 -9.42,4.18 -2.39,2.79 -3.59,7.01 -3.59,12.65 0,5.58 1.2,9.79 3.59,12.65 2.4,2.86 5.54,4.28 9.42,4.28z"/>
  <path id="_5_11" class="fil12" d="M14571.36 3376.9c-2.89,0 -5.69,-0.25 -8.41,-0.74 -2.72,-0.5 -5.2,-1.18 -7.46,-2.07 -2.26,-0.88 -4.24,-1.99 -5.93,-3.33l3.39 -8.68c1.76,1.13 3.67,2.12 5.71,2.97 2.05,0.84 4.17,1.48 6.35,1.9 2.19,0.42 4.34,0.64 6.46,0.64 3.38,0 5.91,-0.59 7.57,-1.75 1.65,-1.17 2.48,-2.7 2.48,-4.6 0,-1.63 -0.54,-2.88 -1.64,-3.76 -1.09,-0.88 -2.73,-1.54 -4.92,-1.96l-10.58 -2.01c-4.38,-0.85 -7.71,-2.45 -10,-4.82 -2.3,-2.36 -3.44,-5.41 -3.44,-9.15 0,-3.39 0.93,-6.31 2.8,-8.78 1.87,-2.47 4.46,-4.38 7.78,-5.72 3.32,-1.34 7.13,-2.01 11.43,-2.01 2.47,0 4.87,0.23 7.2,0.69 2.32,0.46 4.53,1.13 6.61,2.01 2.08,0.88 3.9,2.03 5.45,3.44l-3.6 8.68c-1.34,-1.13 -2.89,-2.1 -4.65,-2.91 -1.77,-0.81 -3.58,-1.45 -5.45,-1.91 -1.87,-0.46 -3.69,-0.69 -5.45,-0.69 -3.46,0 -6.02,0.6 -7.68,1.8 -1.65,1.2 -2.48,2.79 -2.48,4.77 0,1.48 0.49,2.71 1.48,3.7 0.99,0.99 2.5,1.66 4.55,2.01l10.58 2.01c4.59,0.85 8.06,2.4 10.43,4.66 2.36,2.26 3.54,5.29 3.54,9.1 0,3.46 -0.92,6.42 -2.75,8.89 -1.83,2.47 -4.41,4.36 -7.73,5.66 -3.31,1.31 -7.19,1.96 -11.64,1.96z"/>
  <path class="fil12" d="M13535.89 4748.68c-3.74,0 -7.08,-0.72 -10,-2.17 -2.93,-1.45 -5.22,-3.41 -6.88,-5.87 -1.66,-2.47 -2.49,-5.26 -2.49,-8.37 0,-3.81 0.99,-6.82 2.96,-9.04 1.98,-2.23 5.19,-3.83 9.63,-4.82 4.45,-0.99 10.41,-1.48 17.89,-1.48l5.29 0 0 7.62 -5.18 0c-3.32,0 -6.11,0.12 -8.37,0.37 -2.25,0.25 -4.07,0.63 -5.45,1.16 -1.37,0.53 -2.36,1.26 -2.96,2.17 -0.6,0.92 -0.9,2.05 -0.9,3.39 0,2.33 0.81,4.23 2.44,5.71 1.62,1.49 3.88,2.23 6.77,2.23 2.33,0 4.39,-0.55 6.19,-1.64 1.8,-1.1 3.23,-2.6 4.29,-4.5 1.05,-1.91 1.58,-4.09 1.58,-6.56l0 -12.17c0,-3.53 -0.77,-6.07 -2.32,-7.62 -1.56,-1.56 -4.17,-2.33 -7.84,-2.33 -2.89,0 -5.85,0.44 -8.89,1.32 -3.03,0.88 -6.1,2.24 -9.2,4.08l-3.81 -9c1.83,-1.27 4,-2.38 6.51,-3.33 2.5,-0.96 5.15,-1.7 7.93,-2.23 2.79,-0.52 5.42,-0.79 7.89,-0.79 5.08,0 9.26,0.78 12.54,2.33 3.28,1.55 5.73,3.9 7.35,7.04 1.63,3.14 2.44,7.18 2.44,12.11l0 31.33 -12.38 0 0 -11.01 0.84 0c-0.49,2.47 -1.46,4.61 -2.91,6.41 -1.44,1.8 -3.26,3.19 -5.45,4.18 -2.19,0.98 -4.69,1.48 -7.51,1.48z"/>
  <path id="_1_12" class="fil12" d="M13576.74 4747.62l0 -51.75 12.91 0 0 12.49 -1.06 0c0.99,-4.24 2.93,-7.46 5.82,-9.69 2.9,-2.22 6.74,-3.51 11.54,-3.86l4.02 -0.32 0.85 11.22 -7.62 0.74c-4.31,0.43 -7.55,1.75 -9.74,3.97 -2.19,2.22 -3.28,5.35 -3.28,9.37l0 27.83 -13.44 0z"/>
  <path id="_2_13" class="fil12" d="M13618.23 4747.62l0 -51.75 12.91 0 0 12.49 -1.06 0c0.99,-4.24 2.93,-7.46 5.82,-9.69 2.9,-2.22 6.74,-3.51 11.54,-3.86l4.02 -0.32 0.85 11.22 -7.62 0.74c-4.31,0.43 -7.55,1.75 -9.74,3.97 -2.19,2.22 -3.28,5.35 -3.28,9.37l0 27.83 -13.44 0z"/>
  <path id="_3_14" class="fil12" d="M13676.23 4748.68c-3.74,0 -7.08,-0.72 -10,-2.17 -2.93,-1.45 -5.22,-3.41 -6.88,-5.87 -1.66,-2.47 -2.49,-5.26 -2.49,-8.37 0,-3.81 0.99,-6.82 2.96,-9.04 1.98,-2.23 5.19,-3.83 9.63,-4.82 4.45,-0.99 10.41,-1.48 17.89,-1.48l5.29 0 0 7.62 -5.18 0c-3.32,0 -6.11,0.12 -8.37,0.37 -2.25,0.25 -4.07,0.63 -5.45,1.16 -1.37,0.53 -2.36,1.26 -2.96,2.17 -0.6,0.92 -0.9,2.05 -0.9,3.39 0,2.33 0.81,4.23 2.44,5.71 1.62,1.49 3.88,2.23 6.77,2.23 2.33,0 4.39,-0.55 6.19,-1.64 1.8,-1.1 3.23,-2.6 4.29,-4.5 1.05,-1.91 1.58,-4.09 1.58,-6.56l0 -12.17c0,-3.53 -0.77,-6.07 -2.32,-7.62 -1.56,-1.56 -4.17,-2.33 -7.84,-2.33 -2.89,0 -5.85,0.44 -8.89,1.32 -3.03,0.88 -6.1,2.24 -9.2,4.08l-3.81 -9c1.83,-1.27 4,-2.38 6.51,-3.33 2.5,-0.96 5.15,-1.7 7.93,-2.23 2.79,-0.52 5.42,-0.79 7.89,-0.79 5.08,0 9.26,0.78 12.54,2.33 3.28,1.55 5.73,3.9 7.35,7.04 1.63,3.14 2.44,7.18 2.44,12.11l0 31.33 -12.38 0 0 -11.01 0.84 0c-0.49,2.47 -1.46,4.61 -2.91,6.41 -1.44,1.8 -3.26,3.19 -5.45,4.18 -2.19,0.98 -4.69,1.48 -7.51,1.48z"/>
  <path id="_4_15" class="fil12" d="M13716.23 4684.76l0 -12.91 14.82 0 0 12.91 -14.82 0zm0.85 62.86l0 -51.75 13.23 0 0 51.75 -13.23 0z"/>
  <path id="_5_16" class="fil12" d="M13761.11 4748.68c-3.74,0 -7.08,-0.72 -10,-2.17 -2.93,-1.45 -5.22,-3.41 -6.88,-5.87 -1.66,-2.47 -2.49,-5.26 -2.49,-8.37 0,-3.81 0.99,-6.82 2.96,-9.04 1.98,-2.23 5.19,-3.83 9.63,-4.82 4.45,-0.99 10.41,-1.48 17.89,-1.48l5.29 0 0 7.62 -5.18 0c-3.32,0 -6.11,0.12 -8.37,0.37 -2.25,0.25 -4.07,0.63 -5.45,1.16 -1.37,0.53 -2.36,1.26 -2.96,2.17 -0.6,0.92 -0.9,2.05 -0.9,3.39 0,2.33 0.81,4.23 2.44,5.71 1.62,1.49 3.88,2.23 6.77,2.23 2.33,0 4.39,-0.55 6.19,-1.64 1.8,-1.1 3.23,-2.6 4.29,-4.5 1.05,-1.91 1.58,-4.09 1.58,-6.56l0 -12.17c0,-3.53 -0.77,-6.07 -2.32,-7.62 -1.56,-1.56 -4.17,-2.33 -7.84,-2.33 -2.89,0 -5.85,0.44 -8.89,1.32 -3.03,0.88 -6.1,2.24 -9.2,4.08l-3.81 -9c1.83,-1.27 4,-2.38 6.51,-3.33 2.5,-0.96 5.15,-1.7 7.93,-2.23 2.79,-0.52 5.42,-0.79 7.89,-0.79 5.08,0 9.26,0.78 12.54,2.33 3.28,1.55 5.73,3.9 7.35,7.04 1.63,3.14 2.44,7.18 2.44,12.11l0 31.33 -12.38 0 0 -11.01 0.84 0c-0.49,2.47 -1.46,4.61 -2.91,6.41 -1.44,1.8 -3.26,3.19 -5.45,4.18 -2.19,0.98 -4.69,1.48 -7.51,1.48z"/>
  <path id="_6_17" class="fil12" d="M13819.95 4748.68c-6.14,0 -10.67,-1.68 -13.6,-5.03 -2.93,-3.35 -4.39,-8.27 -4.39,-14.76l0 -55.88 13.23 0 0 55.24c0,2.05 0.3,3.8 0.9,5.24 0.6,1.45 1.5,2.52 2.7,3.23 1.2,0.71 2.68,1.06 4.44,1.06 0.78,0 1.55,-0.04 2.33,-0.11 0.78,-0.07 1.52,-0.21 2.22,-0.42l-0.21 10.48c-1.27,0.28 -2.52,0.51 -3.76,0.68 -1.23,0.18 -2.52,0.27 -3.86,0.27z"/>
  <path class="fil12" d="M11417.16 4498.07c-2.82,0 -5.33,-0.55 -7.54,-1.64 -2.21,-1.09 -3.94,-2.57 -5.19,-4.43 -1.25,-1.86 -1.88,-3.96 -1.88,-6.31 0,-2.87 0.75,-5.14 2.24,-6.82 1.49,-1.68 3.91,-2.89 7.26,-3.63 3.36,-0.75 7.85,-1.12 13.49,-1.12l4 0 0 5.75 -3.92 0c-2.5,0 -4.6,0.09 -6.3,0.28 -1.71,0.18 -3.08,0.48 -4.11,0.87 -1.04,0.4 -1.79,0.95 -2.24,1.64 -0.45,0.69 -0.68,1.54 -0.68,2.56 0,1.75 0.61,3.19 1.84,4.31 1.22,1.11 2.93,1.67 5.11,1.67 1.75,0 3.31,-0.41 4.67,-1.23 1.35,-0.83 2.43,-1.96 3.23,-3.4 0.8,-1.43 1.2,-3.08 1.2,-4.95l0 -9.18c0,-2.66 -0.59,-4.57 -1.76,-5.74 -1.17,-1.18 -3.14,-1.76 -5.91,-1.76 -2.18,0 -4.41,0.33 -6.7,1 -2.29,0.66 -4.61,1.69 -6.95,3.07l-2.87 -6.79c1.38,-0.95 3.02,-1.79 4.91,-2.51 1.89,-0.72 3.88,-1.28 5.99,-1.68 2.1,-0.4 4.08,-0.6 5.94,-0.6 3.84,0 6.99,0.59 9.46,1.76 2.48,1.17 4.33,2.94 5.55,5.31 1.23,2.37 1.84,5.41 1.84,9.14l0 23.63 -9.34 0 0 -8.3 0.64 0c-0.38,1.86 -1.11,3.47 -2.2,4.83 -1.09,1.35 -2.46,2.41 -4.11,3.15 -1.65,0.75 -3.54,1.12 -5.67,1.12z"/>
  <path id="_1_18" class="fil12" d="M11447.98 4497.27l0 -39.04 9.74 0 0 9.42 -0.8 0c0.74,-3.19 2.21,-5.62 4.39,-7.3 2.18,-1.68 5.08,-2.65 8.7,-2.92l3.04 -0.23 0.63 8.46 -5.74 0.56c-3.25,0.32 -5.7,1.31 -7.35,2.99 -1.65,1.68 -2.47,4.03 -2.47,7.06l0 21 -10.14 0z"/>
  <path id="_2_19" class="fil12" d="M11491.72 4498.07c-2.82,0 -5.33,-0.55 -7.54,-1.64 -2.21,-1.09 -3.94,-2.57 -5.19,-4.43 -1.25,-1.86 -1.88,-3.96 -1.88,-6.31 0,-2.87 0.75,-5.14 2.24,-6.82 1.49,-1.68 3.91,-2.89 7.26,-3.63 3.36,-0.75 7.85,-1.12 13.49,-1.12l4 0 0 5.75 -3.92 0c-2.5,0 -4.6,0.09 -6.3,0.28 -1.71,0.18 -3.08,0.48 -4.11,0.87 -1.04,0.4 -1.79,0.95 -2.24,1.64 -0.45,0.69 -0.68,1.54 -0.68,2.56 0,1.75 0.61,3.19 1.84,4.31 1.22,1.11 2.93,1.67 5.11,1.67 1.75,0 3.31,-0.41 4.67,-1.23 1.35,-0.83 2.43,-1.96 3.23,-3.4 0.8,-1.43 1.2,-3.08 1.2,-4.95l0 -9.18c0,-2.66 -0.59,-4.57 -1.76,-5.74 -1.17,-1.18 -3.14,-1.76 -5.91,-1.76 -2.18,0 -4.41,0.33 -6.7,1 -2.29,0.66 -4.61,1.69 -6.95,3.07l-2.87 -6.79c1.38,-0.95 3.02,-1.79 4.91,-2.51 1.89,-0.72 3.88,-1.28 5.99,-1.68 2.1,-0.4 4.08,-0.6 5.94,-0.6 3.84,0 6.99,0.59 9.46,1.76 2.48,1.17 4.33,2.94 5.55,5.31 1.23,2.37 1.84,5.41 1.84,9.14l0 23.63 -9.34 0 0 -8.3 0.64 0c-0.38,1.86 -1.11,3.47 -2.2,4.83 -1.09,1.35 -2.46,2.41 -4.11,3.15 -1.65,0.75 -3.54,1.12 -5.67,1.12z"/>
  <path id="_3_20" class="fil12" d="M11522.54 4497.27l0 -39.04 9.74 0 0 9.42 -0.8 0c0.74,-3.19 2.21,-5.62 4.39,-7.3 2.18,-1.68 5.08,-2.65 8.7,-2.92l3.04 -0.23 0.63 8.46 -5.74 0.56c-3.25,0.32 -5.7,1.31 -7.35,2.99 -1.65,1.68 -2.47,4.03 -2.47,7.06l0 21 -10.14 0z"/>
  <path id="_4_21" class="fil12" d="M11567.96 4498.07c-3.25,0 -5.94,-0.6 -8.06,-1.8 -2.13,-1.2 -3.72,-2.99 -4.75,-5.39 -1.04,-2.39 -1.56,-5.37 -1.56,-8.94l0 -23.71 9.98 0 0 23.87c0,1.81 0.24,3.34 0.72,4.59 0.48,1.25 1.25,2.16 2.31,2.72 1.07,0.56 2.4,0.83 3.99,0.83 1.81,0 3.4,-0.41 4.75,-1.23 1.36,-0.83 2.42,-1.98 3.2,-3.48 0.77,-1.49 1.15,-3.27 1.15,-5.34l0 -21.96 9.98 0 0 39.04 -9.74 0 0 -8.14 1.12 0c-1.12,2.87 -2.81,5.08 -5.07,6.62 -2.26,1.55 -4.93,2.32 -8.02,2.32z"/>
  <path id="_5_22" class="fil12" d="M11612.9 4498.07c-2.82,0 -5.33,-0.55 -7.54,-1.64 -2.21,-1.09 -3.94,-2.57 -5.19,-4.43 -1.25,-1.86 -1.88,-3.96 -1.88,-6.31 0,-2.87 0.75,-5.14 2.24,-6.82 1.49,-1.68 3.91,-2.89 7.26,-3.63 3.36,-0.75 7.85,-1.12 13.49,-1.12l4 0 0 5.75 -3.92 0c-2.5,0 -4.6,0.09 -6.3,0.28 -1.71,0.18 -3.08,0.48 -4.11,0.87 -1.04,0.4 -1.79,0.95 -2.24,1.64 -0.45,0.69 -0.68,1.54 -0.68,2.56 0,1.75 0.61,3.19 1.84,4.31 1.22,1.11 2.93,1.67 5.11,1.67 1.75,0 3.31,-0.41 4.67,-1.23 1.35,-0.83 2.43,-1.96 3.23,-3.4 0.8,-1.43 1.2,-3.08 1.2,-4.95l0 -9.18c0,-2.66 -0.59,-4.57 -1.76,-5.74 -1.17,-1.18 -3.14,-1.76 -5.91,-1.76 -2.18,0 -4.41,0.33 -6.7,1 -2.29,0.66 -4.61,1.69 -6.95,3.07l-2.87 -6.79c1.38,-0.95 3.02,-1.79 4.91,-2.51 1.89,-0.72 3.88,-1.28 5.99,-1.68 2.1,-0.4 4.08,-0.6 5.94,-0.6 3.84,0 6.99,0.59 9.46,1.76 2.48,1.17 4.33,2.94 5.55,5.31 1.23,2.37 1.84,5.41 1.84,9.14l0 23.63 -9.34 0 0 -8.3 0.64 0c-0.38,1.86 -1.11,3.47 -2.2,4.83 -1.09,1.35 -2.46,2.41 -4.11,3.15 -1.65,0.75 -3.54,1.12 -5.67,1.12z"/>
  <path id="_6_23" class="fil12" d="M11643.88 4497.27l0 -39.04 9.74 0 0 7.83 -0.88 0c0.69,-1.81 1.65,-3.36 2.87,-4.63 1.23,-1.28 2.69,-2.27 4.39,-2.96 1.71,-0.69 3.6,-1.04 5.67,-1.04 3.14,0 5.72,0.75 7.75,2.24 2.02,1.49 3.43,3.78 4.23,6.87l-1.12 0c1.06,-2.83 2.82,-5.05 5.27,-6.67 2.45,-1.62 5.27,-2.44 8.46,-2.44 2.98,0 5.44,0.59 7.38,1.76 1.95,1.17 3.4,2.94 4.35,5.31 0.96,2.37 1.44,5.36 1.44,8.98l0 23.79 -9.98 0 0 -23.39c0,-2.98 -0.49,-5.16 -1.47,-6.55 -0.99,-1.38 -2.65,-2.07 -4.99,-2.07 -1.71,0 -3.2,0.41 -4.47,1.24 -1.28,0.82 -2.25,2 -2.92,3.55 -0.66,1.54 -1,3.4 -1,5.59l0 21.63 -9.97 0 0 -23.39c0,-2.98 -0.5,-5.16 -1.48,-6.55 -0.99,-1.38 -2.62,-2.07 -4.91,-2.07 -1.76,0 -3.26,0.41 -4.51,1.24 -1.25,0.82 -2.21,2 -2.87,3.55 -0.67,1.54 -1,3.4 -1,5.59l0 21.63 -9.98 0z"/>
  <path id="_7_24" class="fil12" d="M11726.58 4498.07c-2.82,0 -5.33,-0.55 -7.54,-1.64 -2.21,-1.09 -3.94,-2.57 -5.19,-4.43 -1.25,-1.86 -1.88,-3.96 -1.88,-6.31 0,-2.87 0.75,-5.14 2.24,-6.82 1.49,-1.68 3.91,-2.89 7.26,-3.63 3.36,-0.75 7.85,-1.12 13.49,-1.12l4 0 0 5.75 -3.92 0c-2.5,0 -4.6,0.09 -6.3,0.28 -1.71,0.18 -3.08,0.48 -4.11,0.87 -1.04,0.4 -1.79,0.95 -2.24,1.64 -0.45,0.69 -0.68,1.54 -0.68,2.56 0,1.75 0.61,3.19 1.84,4.31 1.22,1.11 2.93,1.67 5.11,1.67 1.75,0 3.31,-0.41 4.67,-1.23 1.35,-0.83 2.43,-1.96 3.23,-3.4 0.8,-1.43 1.2,-3.08 1.2,-4.95l0 -9.18c0,-2.66 -0.59,-4.57 -1.76,-5.74 -1.17,-1.18 -3.14,-1.76 -5.91,-1.76 -2.18,0 -4.41,0.33 -6.7,1 -2.29,0.66 -4.61,1.69 -6.95,3.07l-2.87 -6.79c1.38,-0.95 3.02,-1.79 4.91,-2.51 1.89,-0.72 3.88,-1.28 5.99,-1.68 2.1,-0.4 4.08,-0.6 5.94,-0.6 3.84,0 6.99,0.59 9.46,1.76 2.48,1.17 4.33,2.94 5.55,5.31 1.23,2.37 1.84,5.41 1.84,9.14l0 23.63 -9.34 0 0 -8.3 0.64 0c-0.38,1.86 -1.11,3.47 -2.2,4.83 -1.09,1.35 -2.46,2.41 -4.11,3.15 -1.65,0.75 -3.54,1.12 -5.67,1.12z"/>
  <path class="fil12" d="M12298.13 3596.43l0 -9.74 11.18 0 0 9.74 -11.18 0zm0.64 47.42l0 -39.04 9.98 0 0 39.04 -9.98 0z"/>
  <path id="_1_25" class="fil12" d="M12337.33 3659.02c-3.62,0 -7.01,-0.41 -10.18,-1.24 -3.16,-0.82 -5.95,-2.09 -8.34,-3.79l2.87 -6.95c1.49,0.96 3.06,1.77 4.71,2.44 1.65,0.66 3.33,1.16 5.03,1.47 1.71,0.32 3.41,0.48 5.11,0.48 3.57,0 6.24,-0.86 8.02,-2.59 1.79,-1.73 2.68,-4.3 2.68,-7.7l0 -7.19 0.72 0c-0.8,2.72 -2.46,4.88 -4.99,6.51 -2.53,1.62 -5.39,2.43 -8.58,2.43 -3.52,0 -6.58,-0.81 -9.18,-2.43 -2.61,-1.63 -4.63,-3.9 -6.07,-6.83 -1.44,-2.93 -2.16,-6.33 -2.16,-10.22 0,-3.88 0.72,-7.27 2.16,-10.17 1.44,-2.91 3.46,-5.17 6.07,-6.79 2.6,-1.62 5.66,-2.44 9.18,-2.44 3.3,0 6.18,0.82 8.66,2.44 2.47,1.62 4.08,3.76 4.83,6.43l-0.64 0 0 -8.07 9.74 0 0 35.13c0,4.2 -0.75,7.73 -2.24,10.58 -1.49,2.84 -3.7,4.97 -6.62,6.38 -2.93,1.41 -6.52,2.12 -10.78,2.12zm-0.24 -23.71c3.09,0 5.54,-1.07 7.35,-3.2 1.8,-2.12 2.71,-5.02 2.71,-8.7 0,-3.67 -0.91,-6.56 -2.71,-8.66 -1.81,-2.1 -4.26,-3.15 -7.35,-3.15 -3.09,0 -5.53,1.05 -7.34,3.15 -1.81,2.1 -2.72,4.99 -2.72,8.66 0,3.68 0.91,6.58 2.72,8.7 1.81,2.13 4.25,3.2 7.34,3.2z"/>
  <path id="_2_26" class="fil12" d="M12381.48 3644.65c-3.25,0 -5.94,-0.6 -8.06,-1.8 -2.13,-1.2 -3.72,-2.99 -4.75,-5.39 -1.04,-2.39 -1.56,-5.37 -1.56,-8.94l0 -23.71 9.98 0 0 23.87c0,1.81 0.24,3.34 0.72,4.59 0.48,1.25 1.25,2.16 2.31,2.72 1.07,0.56 2.4,0.83 3.99,0.83 1.81,0 3.4,-0.41 4.75,-1.23 1.36,-0.83 2.42,-1.98 3.2,-3.48 0.77,-1.49 1.15,-3.27 1.15,-5.34l0 -21.96 9.98 0 0 39.04 -9.74 0 0 -8.14 1.12 0c-1.12,2.87 -2.81,5.08 -5.07,6.62 -2.26,1.55 -4.93,2.32 -8.02,2.32z"/>
  <path id="_3_27" class="fil12" d="M12426.42 3644.65c-2.82,0 -5.33,-0.55 -7.54,-1.64 -2.21,-1.09 -3.94,-2.57 -5.19,-4.43 -1.25,-1.86 -1.88,-3.96 -1.88,-6.31 0,-2.87 0.75,-5.14 2.24,-6.82 1.49,-1.68 3.91,-2.89 7.26,-3.63 3.36,-0.75 7.85,-1.12 13.49,-1.12l4 0 0 5.75 -3.92 0c-2.5,0 -4.6,0.09 -6.3,0.28 -1.71,0.18 -3.08,0.48 -4.11,0.87 -1.04,0.4 -1.79,0.95 -2.24,1.64 -0.45,0.69 -0.68,1.54 -0.68,2.56 0,1.75 0.61,3.19 1.84,4.31 1.22,1.11 2.93,1.67 5.11,1.67 1.75,0 3.31,-0.41 4.67,-1.23 1.35,-0.83 2.43,-1.96 3.23,-3.4 0.8,-1.43 1.2,-3.08 1.2,-4.95l0 -9.18c0,-2.66 -0.59,-4.57 -1.76,-5.74 -1.17,-1.18 -3.14,-1.76 -5.91,-1.76 -2.18,0 -4.41,0.33 -6.7,1 -2.29,0.66 -4.61,1.69 -6.95,3.07l-2.87 -6.79c1.38,-0.95 3.02,-1.79 4.91,-2.51 1.89,-0.72 3.88,-1.28 5.99,-1.68 2.1,-0.4 4.08,-0.6 5.94,-0.6 3.84,0 6.99,0.59 9.46,1.76 2.48,1.17 4.33,2.94 5.55,5.31 1.23,2.37 1.84,5.41 1.84,9.14l0 23.63 -9.34 0 0 -8.3 0.64 0c-0.38,1.86 -1.11,3.47 -2.2,4.83 -1.09,1.35 -2.46,2.41 -4.11,3.15 -1.65,0.75 -3.54,1.12 -5.67,1.12z"/>
  <path id="_4_28" class="fil12" d="M12479.75 3644.65c-3.3,0 -6.19,-0.83 -8.66,-2.48 -2.48,-1.65 -4.11,-3.85 -4.91,-6.62l0.8 0 0 8.3 -9.74 0 0 -56.28 9.98 0 0 25.15 -0.96 0c0.85,-2.61 2.5,-4.71 4.95,-6.31 2.45,-1.6 5.29,-2.4 8.54,-2.4 3.46,0 6.47,0.83 9.02,2.48 2.56,1.65 4.55,3.98 5.99,6.98 1.44,3.01 2.15,6.62 2.15,10.82 0,4.15 -0.71,7.76 -2.15,10.82 -1.44,3.06 -3.45,5.41 -6.03,7.06 -2.58,1.65 -5.57,2.48 -8.98,2.48zm-2.79 -7.59c2.98,0 5.37,-1.07 7.18,-3.23 1.81,-2.15 2.72,-5.33 2.72,-9.54 0,-4.26 -0.91,-7.44 -2.72,-9.54 -1.81,-2.1 -4.2,-3.15 -7.18,-3.15 -2.98,0 -5.38,1.05 -7.19,3.15 -1.81,2.1 -2.71,5.28 -2.71,9.54 0,4.21 0.9,7.39 2.71,9.54 1.81,2.16 4.21,3.23 7.19,3.23z"/>
  <path id="_5_29" class="fil12" d="M12517.99 3644.65c-2.82,0 -5.33,-0.55 -7.54,-1.64 -2.21,-1.09 -3.94,-2.57 -5.19,-4.43 -1.25,-1.86 -1.88,-3.96 -1.88,-6.31 0,-2.87 0.75,-5.14 2.24,-6.82 1.49,-1.68 3.91,-2.89 7.26,-3.63 3.36,-0.75 7.85,-1.12 13.49,-1.12l4 0 0 5.75 -3.92 0c-2.5,0 -4.6,0.09 -6.3,0.28 -1.71,0.18 -3.08,0.48 -4.11,0.87 -1.04,0.4 -1.79,0.95 -2.24,1.64 -0.45,0.69 -0.68,1.54 -0.68,2.56 0,1.75 0.61,3.19 1.84,4.31 1.22,1.11 2.93,1.67 5.11,1.67 1.75,0 3.31,-0.41 4.67,-1.23 1.35,-0.83 2.43,-1.96 3.23,-3.4 0.8,-1.43 1.2,-3.08 1.2,-4.95l0 -9.18c0,-2.66 -0.59,-4.57 -1.76,-5.74 -1.17,-1.18 -3.14,-1.76 -5.91,-1.76 -2.18,0 -4.41,0.33 -6.7,1 -2.29,0.66 -4.61,1.69 -6.95,3.07l-2.87 -6.79c1.38,-0.95 3.02,-1.79 4.91,-2.51 1.89,-0.72 3.88,-1.28 5.99,-1.68 2.1,-0.4 4.08,-0.6 5.94,-0.6 3.84,0 6.99,0.59 9.46,1.76 2.48,1.17 4.33,2.94 5.55,5.31 1.23,2.37 1.84,5.41 1.84,9.14l0 23.63 -9.34 0 0 -8.3 0.64 0c-0.38,1.86 -1.11,3.47 -2.2,4.83 -1.09,1.35 -2.46,2.41 -4.11,3.15 -1.65,0.75 -3.54,1.12 -5.67,1.12z"/>
  <path class="fil12" d="M13031.48 3332.47c-2.18,0 -4.3,-0.19 -6.35,-0.56 -2.05,-0.37 -3.92,-0.89 -5.63,-1.56 -1.7,-0.66 -3.19,-1.5 -4.47,-2.51l2.56 -6.55c1.33,0.85 2.77,1.6 4.31,2.24 1.54,0.64 3.14,1.11 4.79,1.43 1.65,0.32 3.27,0.48 4.87,0.48 2.55,0 4.46,-0.44 5.71,-1.31 1.25,-0.88 1.87,-2.04 1.87,-3.48 0,-1.22 -0.41,-2.17 -1.24,-2.83 -0.82,-0.67 -2.06,-1.16 -3.71,-1.48l-7.98 -1.51c-3.3,-0.64 -5.81,-1.85 -7.54,-3.64 -1.73,-1.78 -2.6,-4.08 -2.6,-6.9 0,-2.56 0.71,-4.76 2.12,-6.63 1.41,-1.86 3.36,-3.3 5.86,-4.31 2.51,-1.01 5.38,-1.52 8.63,-1.52 1.86,0 3.67,0.18 5.42,0.52 1.76,0.35 3.42,0.86 4.99,1.52 1.57,0.67 2.94,1.53 4.12,2.59l-2.72 6.55c-1.01,-0.85 -2.18,-1.58 -3.51,-2.19 -1.33,-0.62 -2.7,-1.1 -4.11,-1.44 -1.41,-0.35 -2.78,-0.52 -4.11,-0.52 -2.61,0 -4.54,0.45 -5.79,1.36 -1.25,0.9 -1.88,2.1 -1.88,3.59 0,1.12 0.37,2.05 1.12,2.79 0.74,0.75 1.89,1.25 3.43,1.52l7.99 1.52c3.45,0.64 6.08,1.81 7.86,3.51 1.78,1.7 2.67,3.99 2.67,6.86 0,2.61 -0.69,4.85 -2.07,6.71 -1.39,1.86 -3.33,3.29 -5.83,4.27 -2.5,0.99 -5.43,1.48 -8.78,1.48z"/>
  <path id="_1_30" class="fil12" d="M13069 3332.47c-2.82,0 -5.33,-0.55 -7.54,-1.64 -2.21,-1.09 -3.94,-2.57 -5.19,-4.43 -1.25,-1.86 -1.88,-3.96 -1.88,-6.31 0,-2.87 0.75,-5.14 2.24,-6.82 1.49,-1.68 3.91,-2.89 7.26,-3.63 3.36,-0.75 7.85,-1.12 13.49,-1.12l4 0 0 5.75 -3.92 0c-2.5,0 -4.6,0.09 -6.3,0.28 -1.71,0.18 -3.08,0.48 -4.11,0.87 -1.04,0.4 -1.79,0.95 -2.24,1.64 -0.45,0.69 -0.68,1.54 -0.68,2.56 0,1.75 0.61,3.19 1.84,4.31 1.22,1.11 2.93,1.67 5.11,1.67 1.75,0 3.31,-0.41 4.67,-1.23 1.35,-0.83 2.43,-1.96 3.23,-3.4 0.8,-1.43 1.2,-3.08 1.2,-4.95l0 -9.18c0,-2.66 -0.59,-4.57 -1.76,-5.74 -1.17,-1.18 -3.14,-1.76 -5.91,-1.76 -2.18,0 -4.41,0.33 -6.7,1 -2.29,0.66 -4.61,1.69 -6.95,3.07l-2.87 -6.79c1.38,-0.95 3.02,-1.79 4.91,-2.51 1.89,-0.72 3.88,-1.28 5.99,-1.68 2.1,-0.4 4.08,-0.6 5.94,-0.6 3.84,0 6.99,0.59 9.46,1.76 2.48,1.17 4.33,2.94 5.55,5.31 1.23,2.37 1.84,5.41 1.84,9.14l0 23.63 -9.34 0 0 -8.3 0.64 0c-0.38,1.86 -1.11,3.47 -2.2,4.83 -1.09,1.35 -2.46,2.41 -4.11,3.15 -1.65,0.75 -3.54,1.12 -5.67,1.12z"/>
  <path id="_2_31" class="fil12" d="M13117.62 3332.47c-4.1,0 -7.62,-0.83 -10.58,-2.48 -2.95,-1.65 -5.25,-3.99 -6.9,-7.02 -1.65,-3.04 -2.48,-6.63 -2.48,-10.78 0,-4.2 0.83,-7.82 2.48,-10.86 1.65,-3.03 3.95,-5.37 6.9,-7.02 2.96,-1.65 6.48,-2.48 10.58,-2.48 4.05,0 7.56,0.83 10.54,2.48 2.98,1.65 5.29,4 6.94,7.06 1.65,3.06 2.48,6.64 2.48,10.74 0,4.21 -0.83,7.82 -2.48,10.86 -1.65,3.03 -3.96,5.37 -6.94,7.02 -2.98,1.65 -6.49,2.48 -10.54,2.48zm-0.08 -7.59c3.03,0 5.46,-1.07 7.27,-3.23 1.81,-2.15 2.71,-5.33 2.71,-9.54 0,-4.26 -0.9,-7.44 -2.71,-9.54 -1.81,-2.1 -4.24,-3.15 -7.27,-3.15 -2.93,0 -5.29,1.05 -7.1,3.15 -1.81,2.1 -2.72,5.28 -2.72,9.54 0,4.21 0.91,7.39 2.72,9.54 1.81,2.16 4.17,3.23 7.1,3.23z"/>
  <path id="_3_32" class="fil12" d="M13167.35 3346.04l0 -53.41 9.74 0 0 8.23 -0.8 0c0.8,-2.72 2.43,-4.9 4.91,-6.55 2.47,-1.65 5.36,-2.48 8.66,-2.48 3.41,0 6.4,0.83 8.98,2.48 2.58,1.65 4.59,3.98 6.03,6.98 1.44,3.01 2.15,6.62 2.15,10.82 0,4.15 -0.71,7.76 -2.15,10.82 -1.44,3.06 -3.43,5.41 -5.99,7.06 -2.55,1.65 -5.56,2.48 -9.02,2.48 -3.25,0 -6.09,-0.81 -8.54,-2.44 -2.45,-1.62 -4.1,-3.74 -4.95,-6.34l0.96 0 0 22.35 -9.98 0zm19.72 -21.16c2.98,0 5.37,-1.07 7.18,-3.23 1.81,-2.15 2.72,-5.33 2.72,-9.54 0,-4.26 -0.91,-7.44 -2.72,-9.54 -1.81,-2.1 -4.2,-3.15 -7.18,-3.15 -2.98,0 -5.38,1.05 -7.19,3.15 -1.81,2.1 -2.71,5.28 -2.71,9.54 0,4.21 0.9,7.39 2.71,9.54 1.81,2.16 4.21,3.23 7.19,3.23z"/>
  <path id="_4_33" class="fil12" d="M13234.49 3332.47c-4.42,0 -8.22,-0.83 -11.42,-2.48 -3.19,-1.65 -5.65,-3.99 -7.38,-7.02 -1.73,-3.04 -2.6,-6.63 -2.6,-10.78 0,-4.04 0.84,-7.58 2.52,-10.62 1.67,-3.03 3.99,-5.41 6.94,-7.14 2.96,-1.73 6.32,-2.6 10.1,-2.6 3.73,0 6.92,0.8 9.58,2.4 2.66,1.6 4.72,3.86 6.19,6.79 1.46,2.92 2.19,6.41 2.19,10.45l0 2.96 -29.45 0 0 -5.75 22.43 0 -1.28 1.2c0,-3.62 -0.8,-6.4 -2.39,-8.35 -1.6,-1.94 -3.89,-2.91 -6.87,-2.91 -2.23,0 -4.14,0.52 -5.71,1.56 -1.57,1.03 -2.76,2.5 -3.59,4.39 -0.82,1.89 -1.24,4.14 -1.24,6.74l0 0.56c0,2.93 0.46,5.35 1.36,7.27 0.91,1.91 2.26,3.35 4.07,4.31 1.81,0.96 4.05,1.43 6.71,1.43 2.18,0 4.36,-0.33 6.54,-0.99 2.19,-0.67 4.18,-1.72 5.99,-3.16l2.79 6.71c-1.86,1.54 -4.2,2.77 -7.02,3.67 -2.82,0.91 -5.64,1.36 -8.46,1.36z"/>
  <path id="_5_34" class="fil12" d="M13273.53 3332.47c-3.41,0 -6.4,-0.83 -8.98,-2.48 -2.59,-1.65 -4.59,-4 -6.03,-7.06 -1.44,-3.06 -2.16,-6.67 -2.16,-10.82 0,-4.2 0.72,-7.81 2.16,-10.82 1.44,-3 3.44,-5.33 6.03,-6.98 2.58,-1.65 5.57,-2.48 8.98,-2.48 3.24,0 6.08,0.8 8.5,2.4 2.42,1.6 4.06,3.7 4.91,6.31l-0.88 0 0 -25.15 9.98 0 0 56.28 -9.74 0 0 -8.3 0.72 0c-0.8,2.77 -2.42,4.97 -4.87,6.62 -2.45,1.65 -5.32,2.48 -8.62,2.48zm2.79 -7.59c2.98,0 5.38,-1.07 7.19,-3.23 1.81,-2.15 2.71,-5.33 2.71,-9.54 0,-4.26 -0.9,-7.44 -2.71,-9.54 -1.81,-2.1 -4.21,-3.15 -7.19,-3.15 -2.98,0 -5.37,1.05 -7.18,3.15 -1.81,2.1 -2.72,5.28 -2.72,9.54 0,4.21 0.91,7.39 2.72,9.54 1.81,2.16 4.2,3.23 7.18,3.23z"/>
  <path id="_6_35" class="fil12" d="M13306.42 3331.67l0 -39.04 9.74 0 0 9.42 -0.8 0c0.74,-3.19 2.21,-5.62 4.39,-7.3 2.18,-1.68 5.08,-2.65 8.7,-2.92l3.04 -0.23 0.63 8.46 -5.74 0.56c-3.25,0.32 -5.7,1.31 -7.35,2.99 -1.65,1.68 -2.47,4.03 -2.47,7.06l0 21 -10.14 0z"/>
  <path id="_7_36" class="fil12" d="M13354.87 3332.47c-4.1,0 -7.62,-0.83 -10.58,-2.48 -2.95,-1.65 -5.25,-3.99 -6.9,-7.02 -1.65,-3.04 -2.48,-6.63 -2.48,-10.78 0,-4.2 0.83,-7.82 2.48,-10.86 1.65,-3.03 3.95,-5.37 6.9,-7.02 2.96,-1.65 6.48,-2.48 10.58,-2.48 4.05,0 7.56,0.83 10.54,2.48 2.98,1.65 5.29,4 6.94,7.06 1.65,3.06 2.48,6.64 2.48,10.74 0,4.21 -0.83,7.82 -2.48,10.86 -1.65,3.03 -3.96,5.37 -6.94,7.02 -2.98,1.65 -6.49,2.48 -10.54,2.48zm-0.08 -7.59c3.03,0 5.46,-1.07 7.27,-3.23 1.81,-2.15 2.71,-5.33 2.71,-9.54 0,-4.26 -0.9,-7.44 -2.71,-9.54 -1.81,-2.1 -4.24,-3.15 -7.27,-3.15 -2.93,0 -5.29,1.05 -7.1,3.15 -1.81,2.1 -2.72,5.28 -2.72,9.54 0,4.21 0.91,7.39 2.72,9.54 1.81,2.16 4.17,3.23 7.1,3.23z"/>
  <path class="fil12" d="M11366.37 3188.11c-3.58,0 -6.76,-0.69 -9.56,-2.07 -2.79,-1.38 -4.98,-3.25 -6.57,-5.61 -1.58,-2.36 -2.37,-5.02 -2.37,-7.99 0,-3.64 0.94,-6.52 2.83,-8.64 1.88,-2.12 4.95,-3.66 9.2,-4.6 4.24,-0.94 9.94,-1.42 17.08,-1.42l5.06 0 0 7.28 -4.96 0c-3.17,0 -5.83,0.12 -7.98,0.36 -2.16,0.23 -3.9,0.6 -5.21,1.11 -1.31,0.5 -2.26,1.19 -2.83,2.07 -0.57,0.88 -0.86,1.95 -0.86,3.24 0,2.22 0.77,4.04 2.32,5.45 1.55,1.42 3.71,2.13 6.47,2.13 2.23,0 4.2,-0.53 5.92,-1.57 1.72,-1.04 3.08,-2.48 4.09,-4.3 1.01,-1.82 1.52,-3.9 1.52,-6.26l0 -11.63c0,-3.37 -0.74,-5.79 -2.23,-7.28 -1.48,-1.48 -3.97,-2.22 -7.48,-2.22 -2.76,0 -5.59,0.42 -8.49,1.26 -2.9,0.84 -5.83,2.14 -8.79,3.89l-3.64 -8.59c1.75,-1.21 3.82,-2.27 6.22,-3.18 2.39,-0.91 4.92,-1.62 7.58,-2.13 2.66,-0.5 5.17,-0.75 7.53,-0.75 4.85,0 8.84,0.74 11.98,2.22 3.13,1.48 5.47,3.72 7.02,6.72 1.55,3 2.33,6.86 2.33,11.58l0 29.92 -11.83 0 0 -10.51 0.81 0c-0.47,2.36 -1.4,4.39 -2.78,6.11 -1.38,1.72 -3.12,3.05 -5.21,4 -2.09,0.94 -4.48,1.41 -7.17,1.41z"/>
  <path id="_1_37" class="fil12" d="M11405.39 3187.1l0 -49.43 12.33 0 0 11.93 -1.01 0c0.95,-4.05 2.8,-7.13 5.56,-9.25 2.77,-2.13 6.44,-3.36 11.02,-3.69l3.84 -0.31 0.81 10.72 -7.28 0.71c-4.11,0.4 -7.21,1.66 -9.3,3.79 -2.09,2.12 -3.13,5.1 -3.13,8.94l0 26.59 -12.84 0z"/>
  <path id="_2_38" class="fil12" d="M11460.79 3188.11c-3.58,0 -6.76,-0.69 -9.56,-2.07 -2.79,-1.38 -4.98,-3.25 -6.57,-5.61 -1.58,-2.36 -2.37,-5.02 -2.37,-7.99 0,-3.64 0.94,-6.52 2.83,-8.64 1.88,-2.12 4.95,-3.66 9.2,-4.6 4.24,-0.94 9.94,-1.42 17.08,-1.42l5.06 0 0 7.28 -4.96 0c-3.17,0 -5.83,0.12 -7.98,0.36 -2.16,0.23 -3.9,0.6 -5.21,1.11 -1.31,0.5 -2.26,1.19 -2.83,2.07 -0.57,0.88 -0.86,1.95 -0.86,3.24 0,2.22 0.77,4.04 2.32,5.45 1.55,1.42 3.71,2.13 6.47,2.13 2.23,0 4.2,-0.53 5.92,-1.57 1.72,-1.04 3.08,-2.48 4.09,-4.3 1.01,-1.82 1.52,-3.9 1.52,-6.26l0 -11.63c0,-3.37 -0.74,-5.79 -2.23,-7.28 -1.48,-1.48 -3.97,-2.22 -7.48,-2.22 -2.76,0 -5.59,0.42 -8.49,1.26 -2.9,0.84 -5.83,2.14 -8.79,3.89l-3.64 -8.59c1.75,-1.21 3.82,-2.27 6.22,-3.18 2.39,-0.91 4.92,-1.62 7.58,-2.13 2.66,-0.5 5.17,-0.75 7.53,-0.75 4.85,0 8.84,0.74 11.98,2.22 3.13,1.48 5.47,3.72 7.02,6.72 1.55,3 2.33,6.86 2.33,11.58l0 29.92 -11.83 0 0 -10.51 0.81 0c-0.47,2.36 -1.4,4.39 -2.78,6.11 -1.38,1.72 -3.12,3.05 -5.21,4 -2.09,0.94 -4.48,1.41 -7.17,1.41z"/>
  <path id="_3_39" class="fil12" d="M11499.81 3187.1l0 -49.43 12.33 0 0 11.93 -1.01 0c0.95,-4.05 2.8,-7.13 5.56,-9.25 2.77,-2.13 6.44,-3.36 11.02,-3.69l3.84 -0.31 0.81 10.72 -7.28 0.71c-4.11,0.4 -7.21,1.66 -9.3,3.79 -2.09,2.12 -3.13,5.1 -3.13,8.94l0 26.59 -12.84 0z"/>
  <path id="_4_40" class="fil12" d="M11557.33 3188.11c-4.11,0 -7.51,-0.76 -10.21,-2.27 -2.69,-1.52 -4.7,-3.79 -6.01,-6.83 -1.32,-3.03 -1.97,-6.8 -1.97,-11.32l0 -30.02 12.63 0 0 30.22c0,2.29 0.31,4.23 0.91,5.82 0.61,1.58 1.59,2.73 2.94,3.43 1.34,0.71 3.03,1.06 5.05,1.06 2.29,0 4.3,-0.52 6.01,-1.56 1.72,-1.05 3.07,-2.51 4.05,-4.4 0.98,-1.89 1.46,-4.14 1.46,-6.77l0 -27.8 12.64 0 0 49.43 -12.33 0 0 -10.31 1.41 0c-1.41,3.64 -3.55,6.43 -6.42,8.39 -2.86,1.95 -6.25,2.93 -10.16,2.93z"/>
  <path id="_5_41" class="fil12" d="M11614.25 3188.11c-3.58,0 -6.76,-0.69 -9.56,-2.07 -2.79,-1.38 -4.98,-3.25 -6.57,-5.61 -1.58,-2.36 -2.37,-5.02 -2.37,-7.99 0,-3.64 0.94,-6.52 2.83,-8.64 1.88,-2.12 4.95,-3.66 9.2,-4.6 4.24,-0.94 9.94,-1.42 17.08,-1.42l5.06 0 0 7.28 -4.96 0c-3.17,0 -5.83,0.12 -7.98,0.36 -2.16,0.23 -3.9,0.6 -5.21,1.11 -1.31,0.5 -2.26,1.19 -2.83,2.07 -0.57,0.88 -0.86,1.95 -0.86,3.24 0,2.22 0.77,4.04 2.32,5.45 1.55,1.42 3.71,2.13 6.47,2.13 2.23,0 4.2,-0.53 5.92,-1.57 1.72,-1.04 3.08,-2.48 4.09,-4.3 1.01,-1.82 1.52,-3.9 1.52,-6.26l0 -11.63c0,-3.37 -0.74,-5.79 -2.23,-7.28 -1.48,-1.48 -3.97,-2.22 -7.48,-2.22 -2.76,0 -5.59,0.42 -8.49,1.26 -2.9,0.84 -5.83,2.14 -8.79,3.89l-3.64 -8.59c1.75,-1.21 3.82,-2.27 6.22,-3.18 2.39,-0.91 4.92,-1.62 7.58,-2.13 2.66,-0.5 5.17,-0.75 7.53,-0.75 4.85,0 8.84,0.74 11.98,2.22 3.13,1.48 5.47,3.72 7.02,6.72 1.55,3 2.33,6.86 2.33,11.58l0 29.92 -11.83 0 0 -10.51 0.81 0c-0.47,2.36 -1.4,4.39 -2.78,6.11 -1.38,1.72 -3.12,3.05 -5.21,4 -2.09,0.94 -4.48,1.41 -7.17,1.41z"/>
  <path id="_6_42" class="fil12" d="M11653.47 3187.1l0 -49.43 12.34 0 0 9.9 -1.12 0c0.88,-2.29 2.09,-4.24 3.64,-5.86 1.55,-1.62 3.41,-2.86 5.56,-3.74 2.16,-0.88 4.55,-1.31 7.18,-1.31 3.98,0 7.25,0.94 9.81,2.83 2.56,1.88 4.34,4.78 5.35,8.69l-1.41 0c1.35,-3.57 3.57,-6.39 6.67,-8.44 3.1,-2.06 6.67,-3.08 10.72,-3.08 3.77,0 6.89,0.74 9.35,2.22 2.46,1.48 4.29,3.72 5.51,6.72 1.21,3 1.82,6.79 1.82,11.38l0 30.12 -12.64 0 0 -29.62c0,-3.77 -0.62,-6.54 -1.87,-8.29 -1.25,-1.75 -3.35,-2.63 -6.32,-2.63 -2.15,0 -4.04,0.53 -5.66,1.57 -1.62,1.04 -2.85,2.54 -3.69,4.5 -0.84,1.95 -1.26,4.31 -1.26,7.07l0 27.4 -12.64 0 0 -29.62c0,-3.77 -0.62,-6.54 -1.87,-8.29 -1.25,-1.75 -3.32,-2.63 -6.22,-2.63 -2.22,0 -4.12,0.53 -5.71,1.57 -1.58,1.04 -2.79,2.54 -3.64,4.5 -0.84,1.95 -1.26,4.31 -1.26,7.07l0 27.4 -12.64 0z"/>
  <path id="_7_43" class="fil12" d="M11758.21 3188.11c-3.58,0 -6.76,-0.69 -9.56,-2.07 -2.79,-1.38 -4.98,-3.25 -6.57,-5.61 -1.58,-2.36 -2.37,-5.02 -2.37,-7.99 0,-3.64 0.94,-6.52 2.83,-8.64 1.88,-2.12 4.95,-3.66 9.2,-4.6 4.24,-0.94 9.94,-1.42 17.08,-1.42l5.06 0 0 7.28 -4.96 0c-3.17,0 -5.83,0.12 -7.98,0.36 -2.16,0.23 -3.9,0.6 -5.21,1.11 -1.31,0.5 -2.26,1.19 -2.83,2.07 -0.57,0.88 -0.86,1.95 -0.86,3.24 0,2.22 0.77,4.04 2.32,5.45 1.55,1.42 3.71,2.13 6.47,2.13 2.23,0 4.2,-0.53 5.92,-1.57 1.72,-1.04 3.08,-2.48 4.09,-4.3 1.01,-1.82 1.52,-3.9 1.52,-6.26l0 -11.63c0,-3.37 -0.74,-5.79 -2.23,-7.28 -1.48,-1.48 -3.97,-2.22 -7.48,-2.22 -2.76,0 -5.59,0.42 -8.49,1.26 -2.9,0.84 -5.83,2.14 -8.79,3.89l-3.64 -8.59c1.75,-1.21 3.82,-2.27 6.22,-3.18 2.39,-0.91 4.92,-1.62 7.58,-2.13 2.66,-0.5 5.17,-0.75 7.53,-0.75 4.85,0 8.84,0.74 11.98,2.22 3.13,1.48 5.47,3.72 7.02,6.72 1.55,3 2.33,6.86 2.33,11.58l0 29.92 -11.83 0 0 -10.51 0.81 0c-0.47,2.36 -1.4,4.39 -2.78,6.11 -1.38,1.72 -3.12,3.05 -5.21,4 -2.09,0.94 -4.48,1.41 -7.17,1.41z"/>
  <path class="fil12" d="M9821.07 4050.21c-2.77,0 -5.45,-0.23 -8.04,-0.71 -2.6,-0.47 -4.97,-1.13 -7.13,-1.97 -2.15,-0.84 -4.04,-1.9 -5.66,-3.18l3.24 -8.29c1.68,1.08 3.5,2.02 5.46,2.83 1.95,0.81 3.97,1.41 6.06,1.82 2.09,0.4 4.15,0.6 6.17,0.6 3.23,0 5.64,-0.55 7.22,-1.66 1.59,-1.11 2.38,-2.58 2.38,-4.4 0,-1.55 -0.52,-2.75 -1.57,-3.59 -1.04,-0.84 -2.61,-1.46 -4.7,-1.87l-10.11 -1.92c-4.17,-0.81 -7.36,-2.34 -9.55,-4.6 -2.19,-2.26 -3.28,-5.17 -3.28,-8.74 0,-3.24 0.89,-6.04 2.67,-8.39 1.79,-2.36 4.27,-4.18 7.43,-5.46 3.17,-1.28 6.81,-1.92 10.92,-1.92 2.36,0 4.65,0.22 6.88,0.65 2.22,0.44 4.33,1.08 6.31,1.92 1.99,0.85 3.73,1.94 5.21,3.29l-3.44 8.29c-1.28,-1.08 -2.76,-2.01 -4.44,-2.78 -1.69,-0.78 -3.42,-1.38 -5.21,-1.82 -1.79,-0.44 -3.52,-0.66 -5.21,-0.66 -3.3,0 -5.74,0.57 -7.33,1.72 -1.58,1.15 -2.37,2.66 -2.37,4.55 0,1.41 0.47,2.59 1.41,3.54 0.95,0.94 2.4,1.58 4.35,1.92l10.11 1.92c4.38,0.81 7.7,2.29 9.96,4.45 2.25,2.15 3.38,5.05 3.38,8.69 0,3.3 -0.87,6.13 -2.62,8.49 -1.76,2.36 -4.22,4.16 -7.38,5.41 -3.17,1.25 -6.88,1.87 -11.12,1.87z"/>
  <path id="_1_44" class="fil12" d="M9868.58 4050.21c-3.58,0 -6.76,-0.69 -9.56,-2.07 -2.79,-1.38 -4.98,-3.25 -6.57,-5.61 -1.58,-2.36 -2.37,-5.02 -2.37,-7.99 0,-3.64 0.94,-6.52 2.83,-8.64 1.88,-2.12 4.95,-3.66 9.2,-4.6 4.24,-0.94 9.94,-1.42 17.08,-1.42l5.06 0 0 7.28 -4.96 0c-3.17,0 -5.83,0.12 -7.98,0.36 -2.16,0.23 -3.9,0.6 -5.21,1.11 -1.31,0.5 -2.26,1.19 -2.83,2.07 -0.57,0.88 -0.86,1.95 -0.86,3.24 0,2.22 0.77,4.04 2.32,5.45 1.55,1.42 3.71,2.13 6.47,2.13 2.23,0 4.2,-0.53 5.92,-1.57 1.72,-1.04 3.08,-2.48 4.09,-4.3 1.01,-1.82 1.52,-3.9 1.52,-6.26l0 -11.63c0,-3.37 -0.74,-5.79 -2.23,-7.28 -1.48,-1.48 -3.97,-2.22 -7.48,-2.22 -2.76,0 -5.59,0.42 -8.49,1.26 -2.9,0.84 -5.83,2.14 -8.79,3.89l-3.64 -8.59c1.75,-1.21 3.82,-2.27 6.22,-3.18 2.39,-0.91 4.92,-1.62 7.58,-2.13 2.66,-0.5 5.17,-0.75 7.53,-0.75 4.85,0 8.84,0.74 11.98,2.22 3.13,1.48 5.47,3.72 7.02,6.72 1.55,3 2.33,6.86 2.33,11.58l0 29.92 -11.83 0 0 -10.51 0.81 0c-0.47,2.36 -1.4,4.39 -2.78,6.11 -1.38,1.72 -3.12,3.05 -5.21,4 -2.09,0.94 -4.48,1.41 -7.17,1.41z"/>
  <path id="_2_45" class="fil12" d="M9942.48 4067.4l0 -28.31 1.11 0c-1.08,3.3 -3.15,5.98 -6.22,8.04 -3.06,2.05 -6.65,3.08 -10.76,3.08 -4.32,0 -8.11,-1.04 -11.38,-3.13 -3.27,-2.09 -5.81,-5.07 -7.63,-8.95 -1.82,-3.87 -2.73,-8.44 -2.73,-13.7 0,-5.32 0.91,-9.89 2.73,-13.69 1.82,-3.81 4.36,-6.76 7.63,-8.85 3.27,-2.09 7.06,-3.13 11.38,-3.13 4.17,0 7.81,1.04 10.91,3.13 3.1,2.09 5.16,4.85 6.17,8.29l-0.91 0 0 -10.41 12.33 0 0 67.63 -12.63 0zm-12.34 -26.79c3.78,0 6.81,-1.37 9.1,-4.1 2.29,-2.73 3.44,-6.75 3.44,-12.08 0,-5.39 -1.15,-9.42 -3.44,-12.08 -2.29,-2.66 -5.32,-3.99 -9.1,-3.99 -3.77,0 -6.8,1.33 -9.09,3.99 -2.3,2.66 -3.44,6.69 -3.44,12.08 0,5.33 1.14,9.35 3.44,12.08 2.29,2.73 5.32,4.1 9.09,4.1z"/>
  <path id="_3_46" class="fil12" d="M9986.14 4050.21c-4.11,0 -7.51,-0.76 -10.21,-2.27 -2.69,-1.52 -4.7,-3.79 -6.01,-6.83 -1.32,-3.03 -1.97,-6.8 -1.97,-11.32l0 -30.02 12.63 0 0 30.22c0,2.29 0.31,4.23 0.91,5.82 0.61,1.58 1.59,2.73 2.94,3.43 1.34,0.71 3.03,1.06 5.05,1.06 2.29,0 4.3,-0.52 6.01,-1.56 1.72,-1.05 3.07,-2.51 4.05,-4.4 0.98,-1.89 1.46,-4.14 1.46,-6.77l0 -27.8 12.64 0 0 49.43 -12.33 0 0 -10.31 1.41 0c-1.41,3.64 -3.55,6.43 -6.42,8.39 -2.86,1.95 -6.25,2.93 -10.16,2.93z"/>
  <path id="_4_47" class="fil12" d="M10043.06 4050.21c-3.58,0 -6.76,-0.69 -9.56,-2.07 -2.79,-1.38 -4.98,-3.25 -6.57,-5.61 -1.58,-2.36 -2.37,-5.02 -2.37,-7.99 0,-3.64 0.94,-6.52 2.83,-8.64 1.88,-2.12 4.95,-3.66 9.2,-4.6 4.24,-0.94 9.94,-1.42 17.08,-1.42l5.06 0 0 7.28 -4.96 0c-3.17,0 -5.83,0.12 -7.98,0.36 -2.16,0.23 -3.9,0.6 -5.21,1.11 -1.31,0.5 -2.26,1.19 -2.83,2.07 -0.57,0.88 -0.86,1.95 -0.86,3.24 0,2.22 0.77,4.04 2.32,5.45 1.55,1.42 3.71,2.13 6.47,2.13 2.23,0 4.2,-0.53 5.92,-1.57 1.72,-1.04 3.08,-2.48 4.09,-4.3 1.01,-1.82 1.52,-3.9 1.52,-6.26l0 -11.63c0,-3.37 -0.74,-5.79 -2.23,-7.28 -1.48,-1.48 -3.97,-2.22 -7.48,-2.22 -2.76,0 -5.59,0.42 -8.49,1.26 -2.9,0.84 -5.83,2.14 -8.79,3.89l-3.64 -8.59c1.75,-1.21 3.82,-2.27 6.22,-3.18 2.39,-0.91 4.92,-1.62 7.58,-2.13 2.66,-0.5 5.17,-0.75 7.53,-0.75 4.85,0 8.84,0.74 11.98,2.22 3.13,1.48 5.47,3.72 7.02,6.72 1.55,3 2.33,6.86 2.33,11.58l0 29.92 -11.83 0 0 -10.51 0.81 0c-0.47,2.36 -1.4,4.39 -2.78,6.11 -1.38,1.72 -3.12,3.05 -5.21,4 -2.09,0.94 -4.48,1.41 -7.17,1.41z"/>
  <path id="_5_48" class="fil12" d="M10082.08 4049.2l0 -49.43 12.33 0 0 11.93 -1.01 0c0.95,-4.05 2.8,-7.13 5.56,-9.25 2.77,-2.13 6.44,-3.36 11.02,-3.69l3.84 -0.31 0.81 10.72 -7.28 0.71c-4.11,0.4 -7.21,1.66 -9.3,3.79 -2.09,2.12 -3.13,5.1 -3.13,8.94l0 26.59 -12.84 0z"/>
  <path id="_6_49" class="fil12" d="M10145.26 4050.21c-5.59,0 -10.41,-1.04 -14.45,-3.13 -4.05,-2.09 -7.16,-5.06 -9.35,-8.9 -2.19,-3.84 -3.29,-8.39 -3.29,-13.65 0,-5.12 1.06,-9.6 3.19,-13.44 2.12,-3.84 5.05,-6.86 8.79,-9.05 3.74,-2.19 8,-3.28 12.79,-3.28 4.72,0 8.76,1.01 12.13,3.03 3.37,2.02 5.98,4.88 7.83,8.59 1.86,3.71 2.78,8.12 2.78,13.24l0 3.74 -37.3 0 0 -7.27 28.41 0 -1.62 1.51c0,-4.58 -1.01,-8.1 -3.03,-10.56 -2.02,-2.46 -4.92,-3.69 -8.7,-3.69 -2.83,0 -5.24,0.66 -7.22,1.97 -1.99,1.31 -3.51,3.17 -4.55,5.56 -1.05,2.39 -1.57,5.24 -1.57,8.54l0 0.71c0,3.71 0.57,6.77 1.72,9.2 1.14,2.43 2.86,4.24 5.15,5.46 2.3,1.21 5.13,1.82 8.5,1.82 2.76,0 5.52,-0.42 8.29,-1.27 2.76,-0.84 5.29,-2.17 7.58,-3.99l3.53 8.49c-2.35,1.96 -5.32,3.51 -8.89,4.65 -3.57,1.15 -7.14,1.72 -10.72,1.72z"/>
  <path id="_7_50" class="fil12" d="M10175.89 4049.2l0 -49.43 12.34 0 0 9.9 -1.12 0c0.88,-2.29 2.09,-4.24 3.64,-5.86 1.55,-1.62 3.41,-2.86 5.56,-3.74 2.16,-0.88 4.55,-1.31 7.18,-1.31 3.98,0 7.25,0.94 9.81,2.83 2.56,1.88 4.34,4.78 5.35,8.69l-1.41 0c1.35,-3.57 3.57,-6.39 6.67,-8.44 3.1,-2.06 6.67,-3.08 10.72,-3.08 3.77,0 6.89,0.74 9.35,2.22 2.46,1.48 4.29,3.72 5.51,6.72 1.21,3 1.82,6.79 1.82,11.38l0 30.12 -12.64 0 0 -29.62c0,-3.77 -0.62,-6.54 -1.87,-8.29 -1.25,-1.75 -3.35,-2.63 -6.32,-2.63 -2.15,0 -4.04,0.53 -5.66,1.57 -1.62,1.04 -2.85,2.54 -3.69,4.5 -0.84,1.95 -1.26,4.31 -1.26,7.07l0 27.4 -12.64 0 0 -29.62c0,-3.77 -0.62,-6.54 -1.87,-8.29 -1.25,-1.75 -3.32,-2.63 -6.22,-2.63 -2.22,0 -4.12,0.53 -5.71,1.57 -1.58,1.04 -2.79,2.54 -3.64,4.5 -0.84,1.95 -1.26,4.31 -1.26,7.07l0 27.4 -12.64 0z"/>
  <path id="_8_51" class="fil12" d="M10280.63 4050.21c-3.58,0 -6.76,-0.69 -9.56,-2.07 -2.79,-1.38 -4.98,-3.25 -6.57,-5.61 -1.58,-2.36 -2.37,-5.02 -2.37,-7.99 0,-3.64 0.94,-6.52 2.83,-8.64 1.88,-2.12 4.95,-3.66 9.2,-4.6 4.24,-0.94 9.94,-1.42 17.08,-1.42l5.06 0 0 7.28 -4.96 0c-3.17,0 -5.83,0.12 -7.98,0.36 -2.16,0.23 -3.9,0.6 -5.21,1.11 -1.31,0.5 -2.26,1.19 -2.83,2.07 -0.57,0.88 -0.86,1.95 -0.86,3.24 0,2.22 0.77,4.04 2.32,5.45 1.55,1.42 3.71,2.13 6.47,2.13 2.23,0 4.2,-0.53 5.92,-1.57 1.72,-1.04 3.08,-2.48 4.09,-4.3 1.01,-1.82 1.52,-3.9 1.52,-6.26l0 -11.63c0,-3.37 -0.74,-5.79 -2.23,-7.28 -1.48,-1.48 -3.97,-2.22 -7.48,-2.22 -2.76,0 -5.59,0.42 -8.49,1.26 -2.9,0.84 -5.83,2.14 -8.79,3.89l-3.64 -8.59c1.75,-1.21 3.82,-2.27 6.22,-3.18 2.39,-0.91 4.92,-1.62 7.58,-2.13 2.66,-0.5 5.17,-0.75 7.53,-0.75 4.85,0 8.84,0.74 11.98,2.22 3.13,1.48 5.47,3.72 7.02,6.72 1.55,3 2.33,6.86 2.33,11.58l0 29.92 -11.83 0 0 -10.51 0.81 0c-0.47,2.36 -1.4,4.39 -2.78,6.11 -1.38,1.72 -3.12,3.05 -5.21,4 -2.09,0.94 -4.48,1.41 -7.17,1.41z"/>
  <path class="fil12" d="M7658.39 4267.64l0 -49.43 12.34 0 0 9.9 -1.12 0c0.88,-2.29 2.09,-4.24 3.64,-5.86 1.55,-1.62 3.41,-2.86 5.56,-3.74 2.16,-0.88 4.55,-1.31 7.18,-1.31 3.98,0 7.25,0.94 9.81,2.83 2.56,1.88 4.34,4.78 5.35,8.69l-1.41 0c1.35,-3.57 3.57,-6.39 6.67,-8.44 3.1,-2.06 6.67,-3.08 10.72,-3.08 3.77,0 6.89,0.74 9.35,2.22 2.46,1.48 4.29,3.72 5.51,6.72 1.21,3 1.82,6.79 1.82,11.38l0 30.12 -12.64 0 0 -29.62c0,-3.77 -0.62,-6.54 -1.87,-8.29 -1.25,-1.75 -3.35,-2.63 -6.32,-2.63 -2.15,0 -4.04,0.53 -5.66,1.57 -1.62,1.04 -2.85,2.54 -3.69,4.5 -0.84,1.95 -1.26,4.31 -1.26,7.07l0 27.4 -12.64 0 0 -29.62c0,-3.77 -0.62,-6.54 -1.87,-8.29 -1.25,-1.75 -3.32,-2.63 -6.22,-2.63 -2.22,0 -4.12,0.53 -5.71,1.57 -1.58,1.04 -2.79,2.54 -3.64,4.5 -0.84,1.95 -1.26,4.31 -1.26,7.07l0 27.4 -12.64 0z"/>
  <path id="_1_52" class="fil12" d="M7763.13 4268.65c-3.58,0 -6.76,-0.69 -9.56,-2.07 -2.79,-1.38 -4.98,-3.25 -6.57,-5.61 -1.58,-2.36 -2.37,-5.02 -2.37,-7.99 0,-3.64 0.94,-6.52 2.83,-8.64 1.88,-2.12 4.95,-3.66 9.2,-4.6 4.24,-0.94 9.94,-1.42 17.08,-1.42l5.06 0 0 7.28 -4.96 0c-3.17,0 -5.83,0.12 -7.98,0.36 -2.16,0.23 -3.9,0.6 -5.21,1.11 -1.31,0.5 -2.26,1.19 -2.83,2.07 -0.57,0.88 -0.86,1.95 -0.86,3.24 0,2.22 0.77,4.04 2.32,5.45 1.55,1.42 3.71,2.13 6.47,2.13 2.23,0 4.2,-0.53 5.92,-1.57 1.72,-1.04 3.08,-2.48 4.09,-4.3 1.01,-1.82 1.52,-3.9 1.52,-6.26l0 -11.63c0,-3.37 -0.74,-5.79 -2.23,-7.28 -1.48,-1.48 -3.97,-2.22 -7.48,-2.22 -2.76,0 -5.59,0.42 -8.49,1.26 -2.9,0.84 -5.83,2.14 -8.79,3.89l-3.64 -8.59c1.75,-1.21 3.82,-2.27 6.22,-3.18 2.39,-0.91 4.92,-1.62 7.58,-2.13 2.66,-0.5 5.17,-0.75 7.53,-0.75 4.85,0 8.84,0.74 11.98,2.22 3.13,1.48 5.47,3.72 7.02,6.72 1.55,3 2.33,6.86 2.33,11.58l0 29.92 -11.83 0 0 -10.51 0.81 0c-0.47,2.36 -1.4,4.39 -2.78,6.11 -1.38,1.72 -3.12,3.05 -5.21,4 -2.09,0.94 -4.48,1.41 -7.17,1.41z"/>
  <path id="_2_53" class="fil12" d="M7802.15 4267.64l0 -49.43 12.33 0 0 11.93 -1.01 0c0.95,-4.05 2.8,-7.13 5.56,-9.25 2.77,-2.13 6.44,-3.36 11.02,-3.69l3.84 -0.31 0.81 10.72 -7.28 0.71c-4.11,0.4 -7.21,1.66 -9.3,3.79 -2.09,2.12 -3.13,5.1 -3.13,8.94l0 26.59 -12.84 0z"/>
  <path id="_3_54" class="fil12" d="M7840.97 4207.59l0 -12.33 14.15 0 0 12.33 -14.15 0zm0.81 60.05l0 -49.43 12.64 0 0 49.43 -12.64 0z"/>
  <path id="_4_55" class="fil12" d="M7890.41 4268.65c-5.19,0 -9.71,-1.06 -13.55,-3.18 -3.84,-2.13 -6.81,-5.14 -8.89,-9.05 -2.09,-3.91 -3.14,-8.49 -3.14,-13.75 0,-5.26 1.05,-9.79 3.14,-13.6 2.08,-3.8 5.05,-6.74 8.89,-8.79 3.84,-2.06 8.36,-3.08 13.55,-3.08 3.16,0 6.3,0.5 9.4,1.51 3.1,1.01 5.66,2.43 7.68,4.25l-3.74 8.79c-1.75,-1.55 -3.72,-2.73 -5.91,-3.54 -2.19,-0.8 -4.3,-1.21 -6.32,-1.21 -4.38,0 -7.77,1.37 -10.16,4.1 -2.39,2.73 -3.59,6.62 -3.59,11.67 0,4.99 1.2,8.91 3.59,11.78 2.39,2.86 5.78,4.3 10.16,4.3 1.95,0 4.04,-0.41 6.27,-1.22 2.22,-0.81 4.21,-2.02 5.96,-3.64l3.74 8.9c-2.02,1.75 -4.6,3.15 -7.73,4.19 -3.14,1.05 -6.25,1.57 -9.35,1.57z"/>
  <path id="_5_56" class="fil12" d="M7931.25 4268.65c-3.58,0 -6.76,-0.69 -9.56,-2.07 -2.79,-1.38 -4.98,-3.25 -6.57,-5.61 -1.58,-2.36 -2.37,-5.02 -2.37,-7.99 0,-3.64 0.94,-6.52 2.83,-8.64 1.88,-2.12 4.95,-3.66 9.2,-4.6 4.24,-0.94 9.94,-1.42 17.08,-1.42l5.06 0 0 7.28 -4.96 0c-3.17,0 -5.83,0.12 -7.98,0.36 -2.16,0.23 -3.9,0.6 -5.21,1.11 -1.31,0.5 -2.26,1.19 -2.83,2.07 -0.57,0.88 -0.86,1.95 -0.86,3.24 0,2.22 0.77,4.04 2.32,5.45 1.55,1.42 3.71,2.13 6.47,2.13 2.23,0 4.2,-0.53 5.92,-1.57 1.72,-1.04 3.08,-2.48 4.09,-4.3 1.01,-1.82 1.52,-3.9 1.52,-6.26l0 -11.63c0,-3.37 -0.74,-5.79 -2.23,-7.28 -1.48,-1.48 -3.97,-2.22 -7.48,-2.22 -2.76,0 -5.59,0.42 -8.49,1.26 -2.9,0.84 -5.83,2.14 -8.79,3.89l-3.64 -8.59c1.75,-1.21 3.82,-2.27 6.22,-3.18 2.39,-0.91 4.92,-1.62 7.58,-2.13 2.66,-0.5 5.17,-0.75 7.53,-0.75 4.85,0 8.84,0.74 11.98,2.22 3.13,1.48 5.47,3.72 7.02,6.72 1.55,3 2.33,6.86 2.33,11.58l0 29.92 -11.83 0 0 -10.51 0.81 0c-0.47,2.36 -1.4,4.39 -2.78,6.11 -1.38,1.72 -3.12,3.05 -5.21,4 -2.09,0.94 -4.48,1.41 -7.17,1.41z"/>
 </g>
</svg>
