<?xml version="1.0" encoding="UTF-8"?>
<!DOCTYPE svg PUBLIC "-//W3C//DTD SVG 1.1//EN" "http://www.w3.org/Graphics/SVG/1.1/DTD/svg11.dtd">
<!-- Creator: CorelDRAW -->
<svg xmlns="http://www.w3.org/2000/svg" xml:space="preserve" width="1920px" height="640px" version="1.1" style="shape-rendering:geometricPrecision; text-rendering:geometricPrecision; image-rendering:optimizeQuality; fill-rule:evenodd; clip-rule:evenodd"
viewBox="0 0 1920 640"
 xmlns:xlink="http://www.w3.org/1999/xlink"
 xmlns:xodm="http://www.corel.com/coreldraw/odm/2003">
 <defs>
  <style type="text/css">
   <![CDATA[
    .str0 {stroke:#CCCCCC;stroke-width:2;stroke-miterlimit:22.9256}
    .fil0 {fill:none}
    .fil8 {fill:#33CC66}
    .fil5 {fill:#61FFE7}
    .fil4 {fill:#99FFFF}
    .fil3 {fill:#B4CB33}
    .fil1 {fill:#CCCCCC}
    .fil9 {fill:#FF61D7}
    .fil7 {fill:#FF8833}
    .fil6 {fill:#FF99CC}
    .fil2 {fill:#FFA851}
    .fil10 {fill:#FFCCCC}
   ]]>
  </style>
 </defs>
 <g id="Camada_x0020_1">
  <metadata id="CorelCorpID_0Corel-Layer"/>
  <rect class="fil0" width="1920" height="640"/>
  <g id="_3170833677104">
   <path class="fil1" d="M1689.45 187.09c-0.6,0.82 -0.82,2.4 -1.07,3.13 -2.69,0.55 -16.04,39.47 -11.96,15.41 4.63,-27.29 -9.33,8.95 -13.67,-12.12 -1.94,-9.42 -6.47,12.83 -9.97,-4.2 -1.76,-8.6 -2.44,9.06 -7.75,-6.16 -3.57,-10.24 -11.99,11.13 -14.75,-2.18 -25.15,-5.19 -7.28,16.25 -21.85,6.57 -8.6,-5.72 -1.47,11.61 -10.42,1.21 -5.77,-6.69 -5.64,12.62 -9.04,-8.09 -0.91,-5.52 -6.73,3.6 -8.81,-2.21 -0.01,-0.02 -7.49,4.89 -10.09,5.66 -5.06,1.49 -7.13,-0.84 -8.28,-2.64 -0.3,-0.46 -0.16,-1.17 0.57,-2.21 4.06,-5.77 4.46,-5.58 3.02,-5.92 -0.62,-0.14 -1.92,-0.42 -3.36,0.26 -1.35,0.65 -2.83,2.26 -4.03,2.4 -2.59,0.29 -4,-1.76 -5.54,-2.24 -0.96,-0.3 -1.48,-1.13 -1.24,-2.81 0.11,-0.8 2.56,-0.4 3.02,-1.64 1.48,-3.95 -0.54,-5.6 -3.27,-7.02 -1.41,-0.74 -2.84,-2.09 -4.44,-2.24 -0.64,-0.05 -1.07,1.22 -1.67,1.25 -0.66,0.03 -1.48,-1.17 -2.04,-1.05 -2.84,0.66 -4.08,2.58 -0.23,5.41 0.11,0.08 1.44,1.46 1.02,2.16 -0.09,0.17 -1.39,0.45 -1.51,0.63 -0.37,0.58 -0.93,1.84 -1.46,2.52 -0.53,0.68 -1.4,-0.2 -1.99,0.43 -1.78,1.88 -3.7,3.26 -4.67,2.24 -0.58,-0.62 -1.54,-1.54 -1.43,-4.26 0.03,-0.59 1.67,-1.93 1.35,-2.37 -1.83,-2.51 -8.51,-2.65 -10.75,-2.65 -7.59,-0.34 -2.82,6.15 -11.78,-0.18 -5.48,-3.87 0.93,3.29 -1.03,5.48 -0.5,0.55 -2.7,-0.45 -4.41,-0.58 -7.84,9.77 -2.75,-6.35 -27.65,-9.39 -24.37,-2.98 -27.89,12.99 -41.13,-8.68 -8.56,-14.66 -4.94,-7.47 -7.2,-23.27 -0.92,-6.47 -6.18,-38.73 -12.69,-39.8 -1.13,-2.03 -41.78,-7.26 -10.94,-32.03 0.21,-0.18 0.19,-0.34 0.17,-0.58 -1.9,-7.33 15.41,-7.8 16.18,-16.57 0.73,-8.35 13.08,-5.94 2.22,-16.29 1.3,-5.86 -20.44,-7.57 8.02,-19.1 1.81,-0.73 5.17,-0.63 7.25,-1.11 0.54,-0.14 5.89,-0.72 12.46,-1.21 11.28,-0.82 26.12,0.97 26.31,3.33 1.75,22.25 -1.65,13.74 -1.65,27.96 12.28,-0.97 7.43,6.11 10.99,9.89 4.28,4.54 13.25,22.44 27.67,11.31 20.22,-15.62 30.44,10.9 41.75,-13.77 8.94,-19.48 43.89,-4.84 21.96,13.74 -7.39,6.26 14.99,13.99 31.06,2.62 0.73,-0.52 7.92,-1.56 9.11,-1.83 4.39,-2.63 35.94,-4.35 35.94,3.79 0,4.96 -0.75,6.49 0.29,11.54 10.62,3.66 -13.69,3.99 -2.85,22.85 5.06,8.79 8.58,14.27 19.28,20 7.91,4.24 9.79,15.57 10.95,22.71 -1.36,0.35 3.05,8.19 -0.18,15.7 -1.11,2.56 7.86,25.39 7.85,33.17 0,1.28 -1.04,2.89 -1.64,3.03z"/>
   <path class="fil1 str0" d="M1479.22 3.06c0.83,3.4 0.96,5.26 1.05,7.95 0.62,17.53 -11.25,21.26 5.17,25.72 7.77,2.11 3.17,38.4 37.11,17.78 11.75,-7.14 30.41,8.99 34,-8.56 3.57,-17.52 44.81,-10.6 24.34,7.72 -19.27,17.25 33.69,8.87 34.03,4.97 2.04,-0.51 24.88,-22.77 25.06,-24.84 1.01,-0.06 7.03,-4.27 7.18,-4.79 29.5,-9.27 7.52,-0.82 44.55,-1.54 9.69,-0.19 24.28,-13.9 34.59,-4.29 2.22,2.06 24.07,2.05 41.52,16.02 40.67,32.56 38.86,-8.44 54.47,4.86 7.9,6.73 32.61,3.8 42.12,-11.01 1.43,-2.23 12.64,-1.64 21.74,-18.52 0.06,-0.11 10.21,-5.07 -1.04,-13.5 -2.62,-1.97 -328.46,2.42 -367.59,-0.1 -3.22,-0.21 -22.53,2.2 -32.55,2.14 -3.46,-0.02 -5.95,-0.83 -5.75,-0.01z"/>
   <path class="fil2" d="M1056.62 455.59c-0.09,3.02 1.62,4.44 2.11,5.63 1.18,2.91 1.96,2.04 1.52,2.1 -0.19,0.02 -1.99,-2.22 -0.67,-0.31 0.45,0.65 -0.63,1.84 -1.49,2.76 -0.97,1.03 -4.17,2.09 -5.51,3.62 -1.35,1.54 -2.9,3.36 -4.66,5.49 -1.06,1.27 -0.2,0.98 -1.42,2.48 -0.79,0.97 -2.18,4.18 -2.41,6.23 -0.56,5.09 3.34,13.08 -1.34,22.44 -0.45,0.91 1.99,2.61 1.4,3.54 -0.4,0.61 0.77,2.72 3.25,3.9 2.51,1.2 2.27,-0.17 7.18,-3.4 0.37,-0.24 3.13,-1.42 6.69,-1.74 4.27,-0.39 9.65,0.23 12.6,2.08 2.5,1.56 5.42,3.63 6.41,5.27 2.72,4.55 0.9,7.33 0.57,7.6 -0.48,0.41 -3.18,-1.3 -4.78,2.52 5.87,10.07 17.1,7.86 -18.23,14.99 -36.11,7.29 -0.23,19.35 -25.62,18.13 -0.07,-0.2 -0.39,1.43 -0.62,1.25 -0.67,-0.52 -1.84,-2.8 -3.72,-3.17 -18.24,-3.57 -88.9,-0.31 -125.87,1.71 -2.71,0.15 -5.21,1.52 -7.52,1.65 -9.28,0.54 -15.39,-0.62 -15.47,-0.54 -6.06,6 -23.52,8.22 -41.55,8.57 -5.89,0.12 -8.25,0.09 -14.19,-0.07 -13.15,-0.36 -25.01,-1.49 -31.04,-2.57 -0.66,-1.25 -24.15,-4.8 -41.37,-2.72 -1.58,0.19 -4.18,1.36 -5.61,2.07 -1.77,0.89 -5.9,3.37 -7.32,4.63 -2.15,1.92 -2.44,-0.13 -5.44,-4.7 -0.58,-0.89 -1,-1.9 -1.06,-3.06 -0.15,-2.89 -0.74,-7.31 6.48,-12.58 1.66,-1.21 4.68,-2.34 7.58,-3.56 0.7,-0.29 1.99,-0.4 2.57,-0.73 14.65,-8.62 14.77,-13.51 22.62,-20.6 4.29,-3.87 8.67,-10.75 21.2,-16.91 20.31,-9.97 -10.45,-10.89 20.47,-22.7 3.98,-1.52 7.61,-2.77 11,-3.95 3.11,-1.09 4.7,-2.83 7.53,-3.96 2.44,-0.98 5.41,-0.52 8.01,-1.63 4.64,-1.97 9.16,-6.97 13.8,-10.82 0.78,-0.64 3.18,-1.75 6.92,-1.34 1.77,0.19 3.91,1.67 6.19,1.94 9.2,1.12 22.19,2.51 35.77,0.97 5.87,-0.67 11.96,-3.24 17.8,-5.27 2.2,-0.76 4.49,-1.65 6.64,-2.65 2.23,-1.05 6.3,-1.95 11.03,-4.43 5.79,-3.04 12.27,-6.41 16.5,-8.32 5.32,-0.57 7.87,-2.54 11.15,-2.15 18.58,2.18 11.25,12.99 33.31,-1.83 5.98,-4.02 9.32,9.32 23.84,5.66 11.38,-2.87 -2.57,11.7 28.22,7.94 2.45,-0.3 6.3,-2.18 6.55,0.54z"/>
   <path class="fil3" d="M1088.03 439.56c4.96,-6.17 59.18,-35.17 62.45,-30.55 5.83,8.25 29.12,1.99 38.39,13.58 10.07,12.58 18.35,4.08 28.04,8.98 15.89,8.05 15.82,-20.16 35.83,-6.06 7.7,5.42 75.16,11.97 75.56,21.21 0.31,7.24 -13.21,45.5 -13.05,45.59 1.85,0.98 -1.47,1.71 -0.89,6.45 0.19,1.61 -0.39,2.95 0.91,5.59 0.23,0.46 0.35,1.5 0.73,2.23 4.1,7.89 10.23,33.65 -5.95,33.65 -8.36,0 -83.5,-0.24 -84.01,-0.38 -14.04,-3.86 -69.53,-3.86 -108.33,-4.41 -18.04,-0.26 -32.49,1.41 -37.59,0.24l0.91 -0.26c7.59,-3.51 -12.94,-9.23 0.09,-12.22 4.11,-11.8 -17.23,-20.11 -29.68,-11.34 -12.35,8.69 -14.19,-35.26 4.31,-44.47 12.95,-6.44 -7.59,-5.44 6.71,-14.77 1.71,-1.11 25.13,-12.96 25.57,-13.06z"/>
   <path class="fil4" d="M1342.45 507.46c0.27,0.21 0.14,-2.13 0.94,-4.31 1.31,-3.59 3.53,-9.26 6.88,-13.92 2.45,-3.41 5.4,-4.72 9.16,-5.85 4,-1.2 8.91,-2 14.59,2.19 1.12,0.83 2.42,4.02 3.89,5.79 0.48,0.59 1.34,0.21 1.74,0.61 0.99,-1.39 1.64,-4.73 1.93,-6.21 0.7,-3.49 1.82,-6.27 3.75,-8.19 2.54,-2.5 5.7,-4.09 7.96,-4.22 1.66,-0.09 5,1.62 8.66,3.89 2.18,1.35 4.83,1 6.94,2.56 2.25,1.68 3.48,5.73 4.93,7.04 2.73,2.48 6.1,4.15 9.44,-2.04 1.24,-2.3 3.32,0.97 5.07,-1.55 2.73,-3.91 6.83,-16.57 9.07,-20.42 9.51,-16.31 12.89,-32.01 -1.63,-52.23 -3.96,-5.51 13.09,-16.19 29.92,-32.62 3.58,-3.49 8.68,-6.43 11.7,-10.71 7.11,-10.08 13.87,-21.65 16.57,-34.63 11.4,-54.61 75.74,-43.71 43.84,-95.91 -62.36,-102 7.2,-67.44 -108.84,-7.44 -11.38,5.89 -42.59,28.93 -42.59,51.84 0,14.76 9.95,17.75 9.08,19.85 -0.39,0.96 -6.64,-2.71 -15.73,-0.7 -3.74,0.83 -6.25,6.36 -11.74,7.68 -5.23,14.99 -22.91,20.21 -41.14,22.46 -12.95,1.59 -25.43,0.77 -37.29,4.99 -2.2,0.78 -17.55,2.11 -19.89,2.91 -6.33,11.16 -11.92,22.36 -8.83,38.04 0.63,3.23 -0.46,6.72 -0.67,10.16 -0.15,2.38 -0.22,4.68 -0.57,7.19 -1.1,7.92 -1.83,16.51 -1.36,26.08 0.04,0.69 -2.41,5.1 -2.35,5.8 0.16,2.02 4.3,1.06 6.64,2.28 9.84,5.12 34.22,5.76 50.08,11.96 4.66,1.82 11.89,1.73 14.34,4.69 4.5,5.44 -0.72,12.92 -5.05,27.49 -0.95,3.2 -3.53,6.08 -2.99,9.24 0.27,1.57 -2.97,8.09 -2.76,9.53 0.16,1.04 4.62,-1.37 5.77,-0.43 2.21,1.79 4.05,0.63 6.6,2.73 0.73,0.61 1.56,1.22 2.2,2.03 2.76,3.46 4.96,7.67 8.04,10.63 0.69,0.65 3.01,1.18 3.7,1.72z"/>
   <path class="fil5" d="M1312.77 540.72c0.68,0.41 13.83,-0.21 25.82,0.36 10.23,0.48 21.68,0.41 33.58,1.41 3.44,0.29 8.12,1.22 11.35,1.38 6.36,0.31 12.73,1.04 17.7,1.83 1.42,0.23 2.69,0.31 3.77,0.13 7.7,-1.24 7.1,-8.32 -2.52,-12.57 -2.24,-0.99 -4.98,-1.83 -8.22,-2.4 -6.35,-1.12 -8.93,-5.28 -12.96,-8.83 -9.23,-8.11 -12.98,-15.37 -16.55,-9.77 -0.81,1.28 -9.13,-2.19 -9.89,0.85 -0.06,0.26 6.1,4.15 5.18,4.69 -2.89,1.71 -13.49,1.88 -20.79,4.77 -5.31,2.1 -7.66,5.5 -11.12,3.48 -2.39,-1.4 -1.49,-7.68 -1.96,-11.34 -0.55,-4.32 -6.47,-2.31 -7.44,-0.87 -1.77,2.65 1.32,9.76 1.45,17.62 0.08,4.96 -7.91,8.95 -7.4,9.26z"/>
   <path class="fil6" d="M1437.4 462.83c2.31,-2.33 3.6,-6.48 5.04,-10.38 1.49,-4.04 3.1,-7.88 3.14,-11.99 0.09,-7.3 -1.43,-14.62 -4.06,-19.5 -1.78,-3.33 -0.44,-1.44 -5.75,-10.36 -6,-10.06 15.11,-10.16 23.88,-11.93 1.16,-0.23 6.32,0.34 11.81,-0.78 4.61,-0.94 9.7,-3.33 10.41,-5.98 0.25,-0.79 1.18,-1.02 1.76,-0.71 1.2,0.65 2.27,3.09 2.78,4.63 1.01,3.04 2.55,4.96 2.96,8.14 0.27,2.14 0.56,5.83 0.96,6.57 0.38,0.71 -0.49,2.46 -0.62,6.15 -0.09,2.56 -0.44,6.67 1.76,8.54 1.01,0.86 0.5,3.62 3.48,6.69 0.68,0.71 1.66,0.89 2.52,1.68 0.58,0.53 0.79,1.72 2.07,2.12 1.38,0.43 3.07,-0.07 4.97,0.29 0.43,0.08 0.82,1.09 1.28,1.17 0,0.02 0.78,0.97 0.08,2.67 -1.42,3.47 -5.25,9.71 -8.2,14.95 -2.36,4.2 -4.91,7.85 -7.17,9.14 -2.53,1.43 -5.19,-3.36 -6.86,-8.85 -0.69,-2.28 -3.21,-3.98 -4.91,-5.15 -5.48,-3.8 -13.84,-1.42 -20.08,10.71 -2.08,4.04 -3.33,6.98 -5.51,8.03 -0.84,0.4 -3.24,0.8 -4.02,0.75 -3.38,-0.2 -5.63,-4.23 -8.19,-6.49 -0.74,-0.66 -2.8,0.25 -3.53,-0.11z"/>
   <path class="fil1" d="M1470.37 550.43c-3.89,-1.1 -20.09,-0.94 -27.2,-2.41 -4.76,-0.98 -36.18,-1.79 -36.61,-2.04 4.9,-1.67 4.41,-4.89 2.57,-7.64 -1,-1.47 -2.43,-1.64 -2.84,-2.93 -0.14,-0.46 0.08,-1.26 0.6,-1.9 0.47,-0.58 0.39,-1.18 0.75,-1.52 0.54,-0.54 0.56,-0.97 1.39,-1.26 0.27,-0.1 1.62,-1.07 2.19,-1.1 0.92,-0.04 1.44,-1.19 2.12,-1.74 1.46,-1.17 1.44,-2.06 1.63,-4.11 0.15,-1.66 0.73,-4.38 -0.04,-6.26 -3.57,-8.72 -7.99,-17.21 4.5,-0.91 0.21,0.28 1.4,1.63 1.79,2.12 1.13,1.43 2.7,3.18 4.12,4.87 1.23,1.46 2.38,2.48 2.42,2.67 1.04,0.22 5.26,5.56 10.87,8.13 5.61,2.56 11.44,2.51 16.4,-1.27 3.97,-3.03 7.13,-7.02 7.62,-19.37 0.03,-0.9 -0.32,-3.03 -1.36,-4.2 -1.11,-1.26 -2.46,-3.04 -3.21,-6.09 -0.41,-1.65 -0.29,-5.61 -0.29,-7.7 2.74,0 4.57,3.51 6.26,6.24 1.83,2.97 3.48,5.32 5.5,9.6 0.61,1.29 1.18,2.71 1.8,4.13 0.73,1.68 2.8,3.15 3.87,4.59 0.92,1.23 3.5,3.74 4.42,4.73 3.02,3.21 6.32,6.94 10.25,12.09 2.19,2.87 4.84,4.06 8.87,6.25 2.85,1.55 6.2,4.14 10.35,4.98 10.97,2.21 -2.03,-7.94 15.02,2.06 5.59,3.27 17.45,-6.01 3.59,-21.67 -1,-1.12 -3.43,-1.84 -4.7,-3.02 -1.22,-1.12 -0.76,-3.06 -2.25,-4.23 -1.44,-1.13 -8.93,2.77 -10.69,0.62 -3.58,-4.39 -7.81,-8.21 -5.41,-11.61 0.49,-0.69 0.65,0.27 1.82,-0.56 7.77,-5.5 44.42,41.86 58.52,41.26 0.65,-0.02 11.38,2.16 19.53,1.76 8.14,-0.4 13.71,-3.38 4.24,-8.73 -6.7,-3.79 41.94,-0.18 42.73,1.29 7.04,13.09 12.5,8.76 13.77,11.42 1.17,2.43 -5.63,1.89 -1.73,11.25 3.36,8.05 28.37,-19.61 18.83,-5.24 -0.21,0.33 -9.99,8.83 -1.93,7.47 0.09,-0.02 9.24,-5.41 10.34,-2.24 0.15,0.43 -0.42,1.21 -0.61,2.03 -0.4,1.74 -3.62,2.84 -7.56,8.16 -0.71,0.96 -2.72,-0.91 -4.84,-2.49 -3.03,-2.26 -6.28,-3.93 -6.28,4.07 1,6.32 3.79,1.85 3.96,6.18 0.02,0.49 1.89,0.13 2.31,5.73 0.07,0.96 -3.77,17.27 -6.86,12.05 -4.29,-7.27 0.39,-10.45 -8.33,-11.55 -0.05,0 -1.31,-0.4 -1.35,-0.53 -7.6,-2.45 -9.94,-2.09 -6.62,-8.48 1.37,-2.66 -5.98,-8.9 -8.19,-9.66 -0.23,-0.05 -3.76,-2.61 -9.25,-3.77 -4.88,-1.03 -7.89,-3.4 -13.94,-3.34 -3.31,0.03 0.39,-3.41 -10.81,-1.09 -2.93,0.61 -3.49,-1.39 -5.84,-1.88 -0.2,-0.61 -22.61,-4.09 -25.01,-4.08 -1.03,-1.53 -15.9,-1.11 -20.14,-2.16 -5.84,-1.45 -29.68,-0.97 -34.99,-2.84 -2.11,-0.74 -6.93,0.19 -11.13,-0.98 -7.68,-2.12 -16.97,-0.79 -23.77,-2.99 0,0 -1.09,0.13 -1.17,-0.16z"/>
   <path class="fil7" d="M1565.85 474.57c-1.49,7.1 -0.48,3.65 -0.14,7.7 0.05,0.57 0.4,1.27 0.21,2.17 -0.09,0.44 -0.83,0.94 -0.81,1.5 0.19,4.49 -25.69,11.99 -21.42,1.93 1.48,-3.48 19.99,5.32 17.02,-9.13 -0.12,-0.6 -1.59,-6.1 -0.48,-6.08l-0.34 -0.99c6.97,3.52 9.75,-8.45 11.54,-10.67 10.83,-13.49 0.31,-13.56 -8.58,-21.13 -3.74,-3.18 -5.89,-1.94 -7.35,-0.27 -3.22,3.69 -2.71,13.72 -6.42,12.04 -14.99,-6.77 -9.03,14.4 -15.02,10.94 -6.58,-3.8 -10.48,-1.12 -10.57,-1.2 -10.86,-8.92 -9.73,3.16 -20.25,-0.1 -3.99,-1.23 -6.13,-2.38 -7,-2.92 -1.77,-1.12 3.5,-3.56 9.1,-17.06 4.15,-10.02 -6.86,-2.83 -7.87,-7.7 -6.21,-2.06 -8.02,-16.26 -7.94,-16.45 3.44,-8.25 -4.69,-30.81 -7.92,-25.43 -6.44,10.76 -31.12,5.63 -42.88,10.83 16.6,-35.11 39.07,-4.74 59.42,-85.64 1.12,-4.45 5.08,-8.3 9.48,-12.45 10.43,-9.83 18.91,-16.43 24.64,-20.02 0.35,-1.46 5.44,-4.37 5.85,-5.5 6.27,-17.15 19.52,0.88 25.71,11.25 9.59,16.06 29.58,46.69 44.4,57.6 1.29,0.95 2.31,6.36 4.34,6.78 0.44,1.25 22.58,32.42 23.18,32.58 -0.34,0.72 24.28,28.15 1.65,68.36 -2.9,5.16 -1.39,15.56 -11.87,18.47 -3.12,0.87 -7.83,-0.75 -13.37,-1.49 -2.98,-0.4 -4.3,-2.71 -5.09,-5.46 -0.54,-1.9 2.44,-3.47 2.03,-5.3 -0.44,-1.98 -4.3,-4.19 -5.49,-4.94 -5.89,-3.7 -16.66,2.41 -19.03,4.11 -2.16,1.55 -3.24,2.17 -5.86,-0.29 -0.33,-0.31 -0.99,0.23 -1.43,0.6 -2.01,1.72 -2,12.3 -11.44,13.36z"/>
   <path class="fil8" d="M1532.33 227.57c-2.78,-3.16 -3.65,-6.89 -5.77,-10.42 -8.27,-13.78 -11.94,-28.64 -14.42,-31.6 -0.21,-0.25 -6.8,-12.17 -7.5,-13.71 -0.97,-6.78 9.06,2.06 4.9,-5.08 2.48,-5.93 4.97,2.9 7.95,0.23 3.83,-3.42 -1.11,-0.63 5.3,-2.12 0.77,-2.21 10.62,0.3 11.11,3.11 0.03,-0.01 -4.03,1.68 0.99,6.65 1.04,1.04 1.92,-5.67 6.02,-2.78 0.38,-0.38 -1.21,-3.7 2.96,-3.7 0,-4.69 -9.25,-9.76 1.11,-6.45 0.68,0.21 -0.18,-2.5 4.87,0.85 0.12,0.08 6.17,-0.08 3.27,7.31 -6.51,1.48 4.07,8.97 6.18,5.15 0.69,-1.25 11.3,-5.06 1.66,6.29 -0.8,0.94 4.06,3.72 6.8,3.21 9.66,-1.8 7.11,-1.66 4.9,-0.74 -2.42,1.01 -4.67,2.67 4.22,-3.27 1.77,-1.18 2.95,-2.28 3.28,-2.05 0.89,0.66 -1.32,4.48 4.9,1.19 4.79,-2.54 5.13,2.86 4.77,7.05 -0.19,2.33 1.38,3.89 1.4,3.9 2.42,1.59 2.75,-3.79 4.83,-3.27 0.93,0.24 3.71,2.44 5.45,5.24 1.49,0 1,-1.09 1.54,-1.33 2.25,-1.01 -0.12,-4.83 2.67,-4.87 0.92,-0.01 1.39,1.91 4.11,2.46 7.42,1.5 -0.12,-1.69 4.03,1.51 0.26,0.2 0.93,0.02 1.05,-0.4 0.8,-2.68 0.71,-15.03 13.67,-8.89 4.11,1.94 -1.45,-4.07 4.55,4.57 0.28,0.39 0.77,-0.3 1.33,-0.4 8.57,-1.61 4.75,-11.79 10.78,-0.93 1.6,0.18 0.17,1.67 0.83,2.98 0.48,0.96 1.08,0.95 1.57,1.47 0.37,0.39 -0.55,1.71 1.21,1.19 0.68,-0.21 1.64,-2.59 2.62,-2.99 1.33,-0.54 1.6,3.58 1.92,5.83 0.32,2.31 0.95,3.29 1.94,3.55 0.68,0.18 1.32,0.84 3.02,-1.97 1.07,-1.78 2.83,-3.66 3.51,-3.06 1.31,1.15 1.94,5.76 3.22,8.7 0.78,1.79 1.8,0.89 3.35,0.3 0.88,-0.34 1.62,0.03 2.91,-1.7 2.41,-3.2 4.03,-4.16 5.6,-3.28 0.58,0.32 0.51,1.17 0.91,1.91 0.7,1.29 -0.71,3.67 -0.99,5.61 -0.13,0.91 -0.17,1.92 -0.44,2.81 -0.03,0.09 0.45,0.69 0.38,0.79 -1.72,2.67 0.26,10.25 -4.79,17.31 -0.01,0.02 -0.62,3.94 0.81,4.55 -2.27,3.84 -6.14,111.88 22.74,119.93 0,0.17 -13.72,18.54 -15.53,21.68 -4.98,8.71 -15.47,8.77 -18.58,24.87 -6.01,15.54 37.01,38.19 31.14,41.78 -4.26,2.59 -22.48,30.9 -10.07,41.98 3.15,2.81 0.47,7.71 -5.27,12.64 -3.67,3.16 -10.32,5.59 -11.83,9.92 -9.65,3.32 -0.48,-9.54 -18.25,0.15 -1.1,0.6 -4.23,4.95 -4.11,6.36 -1.79,0.03 -2.98,2.3 -3.47,3.69 -7.96,1.63 -6.7,34.28 -9.47,34.28 -3.77,0 -22.31,-1.75 -34.09,-2.94 -5.77,-0.59 -8.4,0.87 -8.4,0.82 0,-0.98 -1.53,-3.85 -1.53,-4.77 0.07,-10.27 0.81,-17.55 0.82,-28.69 0,-8.51 -4.05,-15.33 -8.19,-20.27 -1.83,-2.18 -5.51,-3.36 -7.02,-4.79 -2.46,-2.32 -1.57,-4.65 -0.33,-5.06 1.06,-0.34 1.88,0.87 6.84,2.36 0.71,0.21 10.19,12.15 17.26,14.45 2.81,0.91 5.19,0.51 5.32,-3.69 0.02,-0.67 -3,-1.03 -3.33,-2.63 -9.74,-3.35 -5.72,-18.07 3.03,-9.75 1.06,1.01 2.13,2.79 3.31,4.52 0.05,0.06 10.66,13.75 14.18,13.43 0.62,-0.06 2.08,0.46 2.08,-0.7 2.64,0 2.5,-5.21 2.59,-10.27 0.03,-1.65 -1.4,-3.27 -1.88,-4.09 -0.78,-1.3 -0.74,-1.31 -0.38,-1.97 0.53,-0.97 3.01,-2.19 5.44,-0.6 1.28,0.85 2.35,2.94 3.54,5.27 3.07,6.02 10.91,-18.24 3.31,-16.61 0.92,-2.2 9.84,-24.68 10.21,-25.36 -0.83,-0.49 7.3,-30.14 1.7,-38.88 -1.35,-2.11 -5.32,-10.16 -9.95,-18.79 -6.19,-11.51 -14.35,-20.65 -17.52,-24.85 -0.44,-2.11 -2.58,-2.28 -2.77,-3.46 -1.24,-0.43 -9.28,-13.51 -13.24,-16.26 -0.23,-0.16 -1.34,-1.64 -3.06,-4.02 -3.63,-5.04 -12.04,-14 -18.53,-23.42 -7.15,-10.38 -12.42,-21.29 -16.52,-27.36 -1.93,-2.87 -3.15,-4.7 -3.27,-4.94 -0.38,-0.08 -10.2,-14.13 -15.87,-10.83 3.64,2.16 0.47,-18.41 -4.07,-31.5 -1.23,-3.56 -3.6,-7.17 -4.92,-9.01 -0.02,-0.02 -2.51,-3.15 -2.55,-3.33z"/>
   <path class="fil9" d="M1674.77 112.18c-11.81,-3.94 -35.23,-25.19 -17.8,-38.74 6.58,-5.11 -1.09,2.33 -1.09,-11.37 0,-18.58 -35.36,-9.19 -34.9,-8.27 1.52,-13.85 12.86,-20.44 23.45,-28.09 4.68,-3.38 16.02,-9.29 19.62,-3.58 9.01,14.31 48.91,-9.05 57.15,-2.83 2.71,2.03 37.29,7.34 40.15,13.08 6.69,0.7 34.16,24.54 43.88,12.82 11.48,-13.84 5.76,-5.53 28.63,-2.75 11.28,1.38 -6.52,10.06 -13.22,21.58 -6.18,10.61 -19.54,16.67 -18.86,33.76 0.01,0.3 -0.56,1.03 -0.74,1.48 -0.06,-0.04 -7.6,4.71 -9.59,4.62 -6.4,-0.27 2.42,12.46 -12.96,6.16 -7.19,-2.94 -6.18,7.43 -12.31,9.59 -5.39,1.9 -8.85,7.8 -12.48,9.19 -2.67,7.54 -3.72,14.06 -5.69,17.89 -0.96,1.85 -1.77,3.38 -2.08,4.87l-0.4 0.25c-6.19,1.43 -13.55,16.79 -16.7,5.25 -1.93,-7.05 -18.08,-5.83 -23.22,6.08 -2.78,6.45 -15.02,22.12 -15.02,22.02 0,-18.23 -11.79,-26.23 -6.27,-38.35 0.52,-1.15 0.33,-3.29 0.38,-4.8 0.35,-9.61 -6.15,-24.36 -9.93,-29.86z"/>
   <path class="fil10" d="M1723.14 424.02c7.12,-2.42 3.75,2.39 8.22,3.78 0.9,0.28 1.92,-0.41 3.64,-0.41 -0.08,-0.95 1.02,-1.81 1.1,-2.46 0.44,-4.05 1.33,2.51 -4.98,-6.25 -4.15,-5.77 17.48,-29.81 23.11,-19.65 2.39,4.32 3.44,-5.84 5.66,1.82 1.6,5.52 7.69,-7.38 12.11,-5.44 1.28,0.57 1.51,2.9 2.58,6.66 1.11,0 5.35,-8.61 -2.7,-12.29 -0.4,-0.18 -0.35,-0.52 -0.76,-0.75 -0.03,-0.02 -2.3,-4.93 2.75,-1.49 1.41,0.95 3.15,3.51 6.06,5.92 0.13,0.1 1.45,-22.81 3.72,-11.78 1.04,5.07 -1.35,-2.58 6.96,-3.19 0.71,-0.05 14.81,-22.21 3.43,-14.16 -1.93,1.37 -5.78,3.24 -6.32,1.63 -0.69,-2.04 4.65,-4.14 3.79,-6.82 0,-0.37 -1.62,-1 -3,-2.08 -1.79,-1.41 -3.47,-3.28 -3.49,-3.28 -1.51,3.68 -2.18,6.02 -3.67,5.73 -3.76,-0.73 -8.2,-10.64 -6.35,2.77 1.32,9.6 -1.46,-1.45 -4.68,7.84 -1.13,0.39 -3.69,-1.35 -3.87,-1.38 -0.61,-1.77 -2.23,-1.78 -3.43,-2.21 -1.19,-0.43 -1.95,-1.29 -3.5,-0.79 -1.45,0.46 -2.79,3.42 -4.45,4.25 -2.26,1.13 -4.93,0.15 -7.59,0.38 -2.76,0.24 0,2.77 0.27,2.83 1,2.84 2.29,5.31 1.79,7.25 -1.12,4.39 -6.86,7.26 -13.21,4.95 -3.64,-1.32 -7.01,-4.92 -11.04,-9.46 -1.34,-1.51 -2.28,-3.87 -3.61,-5.78 -0.77,-1.1 -14.88,-12.9 -12.47,-18.94 -0.08,-0.12 -18.2,-9.74 -21.68,3.71 -5.04,19.52 -36.69,29.38 -22.62,53.59 0.82,1.41 23.86,21.98 25.98,22.72 2.07,7.24 16.89,0.85 19.57,-2.94 0.03,-0.03 3.88,-1.18 7.16,-2.45 2.26,-0.87 4.03,-2.45 5.52,-1.83z"/>
  </g>
 </g>
</svg>
